Ribes-Black.ufo
<glyph name="exclam" format="2">
  <advance width="228"/>
  <unicode hex="0021"/>
  <outline>
    <contour>
      <point x="95" y="188" type="line"/>
      <point x="133" y="188" type="line"/>
      <point x="140" y="750" type="line"/>
      <point x="88" y="750" type="line"/>
    </contour>
    <component base="period"/>
  </outline>
</glyph>
<glyph name="numbersign" format="2">
  <advance width="652"/>
  <unicode hex="0023"/>
  <outline>
    <contour>
      <point x="94" y="0" type="line"/>
      <point x="134" y="0" type="line"/>
      <point x="286" y="700" type="line"/>
      <point x="244" y="700" type="line"/>
    </contour>
    <contour>
      <point x="372" y="0" type="line"/>
      <point x="412" y="0" type="line"/>
      <point x="552" y="700" type="line"/>
      <point x="510" y="700" type="line"/>
    </contour>
    <contour>
      <point x="98" y="401" type="line"/>
      <point x="576" y="401" type="line"/>
      <point x="600" y="553" type="line"/>
      <point x="124" y="553" type="line"/>
    </contour>
    <contour>
      <point x="48" y="144" type="line"/>
      <point x="530" y="144" type="line"/>
      <point x="554" y="292" type="line"/>
      <point x="72" y="292" type="line"/>
    </contour>
  </outline>
</glyph>
<glyph name="percent" format="2">
  <advance width="752"/>
  <unicode hex="0025"/>
  <outline>
    <contour>
      <point x="554" y="-8" type="curve" smooth="yes"/>
      <point x="650" y="-8"/>
      <point x="712" y="64"/>
      <point x="712" y="175" type="curve" smooth="yes"/>
      <point x="712" y="290"/>
      <point x="650" y="364"/>
      <point x="554" y="364" type="curve" smooth="yes"/>
      <point x="458" y="364"/>
      <point x="396" y="290"/>
      <point x="396" y="175" type="curve" smooth="yes"/>
      <point x="396" y="64"/>
      <point x="458" y="-8"/>
    </contour>
    <contour>
      <point x="190" y="332" type="curve" smooth="yes"/>
      <point x="286" y="332"/>
      <point x="348" y="404"/>
      <point x="348" y="515" type="curve" smooth="yes"/>
      <point x="348" y="630"/>
      <point x="286" y="704"/>
      <point x="190" y="704" type="curve" smooth="yes"/>
      <point x="94" y="704"/>
      <point x="32" y="630"/>
      <point x="32" y="515" type="curve" smooth="yes"/>
      <point x="32" y="404"/>
      <point x="94" y="332"/>
    </contour>
    <contour>
      <point x="190" y="396" type="curve" smooth="yes"/>
      <point x="113" y="396"/>
      <point x="68" y="441"/>
      <point x="68" y="517" type="curve" smooth="yes"/>
      <point x="68" y="593"/>
      <point x="113" y="638"/>
      <point x="190" y="638" type="curve" smooth="yes"/>
      <point x="267" y="638"/>
      <point x="312" y="593"/>
      <point x="312" y="517" type="curve" smooth="yes"/>
      <point x="312" y="441"/>
      <point x="267" y="396"/>
    </contour>
    <contour>
      <point x="554" y="56" type="curve" smooth="yes"/>
      <point x="477" y="56"/>
      <point x="432" y="101"/>
      <point x="432" y="177" type="curve" smooth="yes"/>
      <point x="432" y="253"/>
      <point x="477" y="298"/>
      <point x="554" y="298" type="curve" smooth="yes"/>
      <point x="631" y="298"/>
      <point x="676" y="253"/>
      <point x="676" y="177" type="curve" smooth="yes"/>
      <point x="676" y="101"/>
      <point x="631" y="56"/>
    </contour>
    <component base="fraction" xOffset="92"/>
  </outline>
</glyph>
<glyph name="ampersand" format="2">
  <advance width="584"/>
  <unicode hex="0026"/>
  <outline>
    <contour>
      <point x="286" y="-8" type="curve" smooth="yes"/>
      <point x="437" y="-8"/>
      <point x="534" y="67"/>
      <point x="534" y="184" type="curve" smooth="yes"/>
      <point x="534" y="259"/>
      <point x="495" y="319"/>
      <point x="435" y="338" type="curve"/>
      <point x="435" y="350" type="line"/>
      <point x="568" y="338" type="line"/>
      <point x="568" y="386" type="line"/>
      <point x="288" y="386" type="line" smooth="yes"/>
      <point x="182" y="386"/>
      <point x="120" y="416"/>
      <point x="120" y="468" type="curve" smooth="yes"/>
      <point x="120" y="519"/>
      <point x="180" y="548"/>
      <point x="280" y="548" type="curve" smooth="yes"/>
      <point x="384" y="548"/>
      <point x="456" y="516"/>
      <point x="476" y="456" type="curve"/>
      <point x="504" y="458" type="line"/>
      <point x="516" y="610"/>
      <point x="427" y="708"/>
      <point x="276" y="708" type="curve" smooth="yes"/>
      <point x="142" y="708"/>
      <point x="56" y="636"/>
      <point x="56" y="524" type="curve" smooth="yes"/>
      <point x="56" y="444"/>
      <point x="102" y="384"/>
      <point x="174" y="370" type="curve"/>
      <point x="174" y="358" type="line"/>
      <point x="92" y="342"/>
      <point x="40" y="275"/>
      <point x="40" y="188" type="curve" smooth="yes"/>
      <point x="40" y="69"/>
      <point x="136" y="-8"/>
    </contour>
    <contour>
      <point x="288" y="144" type="curve" smooth="yes"/>
      <point x="171" y="144"/>
      <point x="102" y="181"/>
      <point x="102" y="244" type="curve" smooth="yes"/>
      <point x="102" y="307"/>
      <point x="171" y="344"/>
      <point x="288" y="344" type="curve" smooth="yes"/>
      <point x="405" y="344"/>
      <point x="474" y="307"/>
      <point x="474" y="244" type="curve" smooth="yes"/>
      <point x="474" y="181"/>
      <point x="405" y="144"/>
    </contour>
  </outline>
</glyph>
<glyph name="parenleft" format="2">
  <advance width="328"/>
  <unicode hex="0028"/>
  <note>
spazio interno
</note>
  <outline>
    <contour>
      <point x="312" y="-221" type="curve"/>
      <point x="312" y="-149" type="line"/>
      <point x="167" y="-149"/>
      <point x="82" y="3"/>
      <point x="82" y="263" type="curve" smooth="yes"/>
      <point x="82" y="523"/>
      <point x="167" y="675"/>
      <point x="312" y="675" type="curve"/>
      <point x="312" y="749" type="line"/>
      <point x="144" y="749"/>
      <point x="36" y="559"/>
      <point x="36" y="264" type="curve" smooth="yes"/>
      <point x="36" y="-31"/>
      <point x="144" y="-221"/>
    </contour>
  </outline>
</glyph>
<glyph name="asterisk" format="2">
  <advance width="420"/>
  <unicode hex="002A"/>
  <outline>
    <contour>
      <point x="180" y="332" type="line"/>
      <point x="240" y="332" type="line"/>
      <point x="226" y="475" type="line"/>
      <point x="237" y="482" type="line"/>
      <point x="354" y="398" type="line"/>
      <point x="384" y="450" type="line"/>
      <point x="253" y="510" type="line"/>
      <point x="253" y="522" type="line"/>
      <point x="384" y="582" type="line"/>
      <point x="354" y="634" type="line"/>
      <point x="237" y="550" type="line"/>
      <point x="226" y="557" type="line"/>
      <point x="240" y="700" type="line"/>
      <point x="180" y="700" type="line"/>
      <point x="194" y="557" type="line"/>
      <point x="183" y="550" type="line"/>
      <point x="66" y="634" type="line"/>
      <point x="36" y="582" type="line"/>
      <point x="167" y="522" type="line"/>
      <point x="167" y="510" type="line"/>
      <point x="36" y="450" type="line"/>
      <point x="66" y="398" type="line"/>
      <point x="183" y="482" type="line"/>
      <point x="194" y="475" type="line"/>
    </contour>
  </outline>
</glyph>
<glyph name="plus" format="2">
  <advance width="564"/>
  <unicode hex="002B"/>
  <outline>
    <contour>
      <point x="260" y="40" type="line"/>
      <point x="304" y="40" type="line"/>
      <point x="304" y="520" type="line"/>
      <point x="260" y="520" type="line"/>
    </contour>
    <component base="minus"/>
  </outline>
</glyph>
<glyph name="comma" format="2">
  <advance width="192"/>
  <unicode hex="002C"/>
  <outline>
    <contour>
      <point x="76" y="-188" type="line"/>
      <point x="140" y="88" type="line"/>
      <point x="88" y="98" type="line"/>
      <point x="40" y="-180" type="line"/>
    </contour>
  </outline>
</glyph>
<glyph name="hyphen" format="2">
  <advance width="512"/>
  <unicode hex="002D"/>
  <outline>
    <contour>
      <point x="52" y="225" type="line"/>
      <point x="460" y="225" type="line"/>
      <point x="460" y="287" type="line"/>
      <point x="52" y="287" type="line"/>
    </contour>
  </outline>
</glyph>
<glyph name="period" format="2">
  <advance width="228"/>
  <unicode hex="002E"/>
  <outline>
    <contour>
      <point x="114" y="-4" type="curve" smooth="yes"/>
      <point x="153" y="-4"/>
      <point x="180" y="23"/>
      <point x="180" y="62" type="curve" smooth="yes"/>
      <point x="180" y="101"/>
      <point x="153" y="128"/>
      <point x="114" y="128" type="curve" smooth="yes"/>
      <point x="75" y="128"/>
      <point x="48" y="101"/>
      <point x="48" y="62" type="curve" smooth="yes"/>
      <point x="48" y="23"/>
      <point x="75" y="-4"/>
    </contour>
  </outline>
</glyph>
<glyph name="slash" format="2">
  <advance width="328"/>
  <unicode hex="002F"/>
  <outline>
    <contour>
      <point x="8" y="-120" type="line"/>
      <point x="52" y="-120" type="line"/>
      <point x="320" y="780" type="line"/>
      <point x="276" y="780" type="line"/>
    </contour>
  </outline>
</glyph>
<glyph name="zero" format="2">
  <advance width="640"/>
  <unicode hex="0030"/>
  <outline>
    <contour>
      <point x="320" y="-8" type="curve" smooth="yes"/>
      <point x="486" y="-8"/>
      <point x="592" y="132"/>
      <point x="592" y="350" type="curve" smooth="yes"/>
      <point x="592" y="568"/>
      <point x="486" y="708"/>
      <point x="320" y="708" type="curve" smooth="yes"/>
      <point x="154" y="708"/>
      <point x="48" y="568"/>
      <point x="48" y="350" type="curve" smooth="yes"/>
      <point x="48" y="132"/>
      <point x="154" y="-8"/>
    </contour>
    <contour>
      <point x="320" y="166" type="curve" smooth="yes"/>
      <point x="171" y="166"/>
      <point x="84" y="233"/>
      <point x="84" y="349" type="curve" smooth="yes"/>
      <point x="84" y="465"/>
      <point x="171" y="532"/>
      <point x="320" y="532" type="curve" smooth="yes"/>
      <point x="469" y="532"/>
      <point x="556" y="465"/>
      <point x="556" y="349" type="curve" smooth="yes"/>
      <point x="556" y="233"/>
      <point x="469" y="166"/>
    </contour>
  </outline>
</glyph>
<glyph name="one" format="2">
  <advance width="328"/>
  <unicode hex="0031"/>
  <outline>
    <contour>
      <point x="220" y="0" type="line"/>
      <point x="268" y="0" type="line"/>
      <point x="268" y="700" type="line"/>
      <point x="224" y="700" type="line"/>
      <point x="224" y="608"/>
      <point x="148" y="552"/>
      <point x="12" y="552" type="curve"/>
      <point x="12" y="344" type="line"/>
      <point x="120" y="344"/>
      <point x="188" y="378"/>
      <point x="208" y="442" type="curve"/>
      <point x="220" y="442" type="line"/>
    </contour>
  </outline>
</glyph>
<glyph name="two" format="2">
  <advance width="544"/>
  <unicode hex="0032"/>
  <outline>
    <contour>
      <point x="44" y="0" type="line"/>
      <point x="492" y="0" type="line"/>
      <point x="492" y="164" type="line"/>
      <point x="140" y="164" type="line"/>
      <point x="140" y="176" type="line"/>
      <point x="368" y="240"/>
      <point x="496" y="340"/>
      <point x="496" y="492" type="curve" smooth="yes"/>
      <point x="496" y="620"/>
      <point x="408" y="708"/>
      <point x="272" y="708" type="curve" smooth="yes"/>
      <point x="128" y="708"/>
      <point x="36" y="602"/>
      <point x="36" y="438" type="curve"/>
      <point x="68" y="434" type="line"/>
      <point x="81" y="498"/>
      <point x="149" y="536"/>
      <point x="252" y="536" type="curve" smooth="yes"/>
      <point x="360" y="536"/>
      <point x="424" y="496"/>
      <point x="424" y="424" type="curve" smooth="yes"/>
      <point x="424" y="328"/>
      <point x="300" y="244"/>
      <point x="44" y="180" type="curve"/>
    </contour>
  </outline>
</glyph>
<glyph name="three" format="2">
  <advance width="576"/>
  <unicode hex="0033"/>
  <outline>
    <contour>
      <point x="300" y="-8" type="curve" smooth="yes"/>
      <point x="438" y="-8"/>
      <point x="536" y="64"/>
      <point x="536" y="180" type="curve" smooth="yes"/>
      <point x="536" y="274"/>
      <point x="476" y="333"/>
      <point x="380" y="343" type="curve"/>
      <point x="380" y="355" type="line"/>
      <point x="463" y="364"/>
      <point x="516" y="427"/>
      <point x="516" y="516" type="curve" smooth="yes"/>
      <point x="516" y="633"/>
      <point x="428" y="708"/>
      <point x="292" y="708" type="curve" smooth="yes"/>
      <point x="144" y="708"/>
      <point x="58" y="612"/>
      <point x="58" y="472" type="curve"/>
      <point x="90" y="468" type="line"/>
      <point x="98" y="512"/>
      <point x="172" y="538"/>
      <point x="276" y="538" type="curve" smooth="yes"/>
      <point x="388" y="538"/>
      <point x="454" y="506"/>
      <point x="454" y="452" type="curve" smooth="yes"/>
      <point x="454" y="401"/>
      <point x="394" y="372"/>
      <point x="292" y="372" type="curve" smooth="yes"/>
      <point x="196" y="372" type="line"/>
      <point x="196" y="324" type="line"/>
      <point x="288" y="324" type="line" smooth="yes"/>
      <point x="402" y="324"/>
      <point x="468" y="294"/>
      <point x="468" y="242" type="curve" smooth="yes"/>
      <point x="468" y="190"/>
      <point x="399" y="160"/>
      <point x="280" y="160" type="curve" smooth="yes"/>
      <point x="164" y="160"/>
      <point x="90" y="190"/>
      <point x="78" y="242" type="curve"/>
      <point x="46" y="238" type="line"/>
      <point x="46" y="90"/>
      <point x="136" y="-8"/>
    </contour>
  </outline>
</glyph>
<glyph name="four" format="2">
  <advance width="516"/>
  <unicode hex="0034"/>
  <outline>
    <contour>
      <point x="370" y="0" type="line"/>
      <point x="416" y="0" type="line"/>
      <point x="416" y="700" type="line"/>
      <point x="316" y="700" type="line"/>
      <point x="16" y="252" type="line"/>
      <point x="16" y="118" type="line"/>
      <point x="496" y="118" type="line"/>
      <point x="496" y="290" type="line"/>
      <point x="108" y="290" type="line"/>
      <point x="108" y="302" type="line"/>
      <point x="248" y="512" type="line"/>
      <point x="370" y="512" type="line"/>
    </contour>
  </outline>
</glyph>
<glyph name="five" format="2">
  <advance width="556"/>
  <unicode hex="0035"/>
  <outline>
    <contour>
      <point x="286" y="-8" type="curve" smooth="yes"/>
      <point x="432" y="-8"/>
      <point x="526" y="77"/>
      <point x="526" y="208" type="curve" smooth="yes"/>
      <point x="526" y="416"/>
      <point x="300" y="473"/>
      <point x="136" y="372" type="curve"/>
      <point x="126" y="374" type="line"/>
      <point x="140" y="532" type="line"/>
      <point x="490" y="532" type="line"/>
      <point x="490" y="700" type="line"/>
      <point x="108" y="700" type="line"/>
      <point x="78" y="346" type="line"/>
      <point x="136" y="336" type="line"/>
      <point x="256" y="420"/>
      <point x="458" y="386"/>
      <point x="458" y="270" type="curve" smooth="yes"/>
      <point x="458" y="203"/>
      <point x="389" y="160"/>
      <point x="272" y="160" type="curve" smooth="yes"/>
      <point x="164" y="160"/>
      <point x="88" y="196"/>
      <point x="72" y="248" type="curve"/>
      <point x="40" y="242" type="line"/>
      <point x="40" y="90"/>
      <point x="136" y="-8"/>
    </contour>
  </outline>
</glyph>
<glyph name="six" format="2">
  <advance width="584"/>
  <unicode hex="0036"/>
  <outline>
    <contour>
      <point x="322" y="-8" type="curve" smooth="yes"/>
      <point x="462" y="-8"/>
      <point x="548" y="78"/>
      <point x="548" y="212" type="curve" smooth="yes"/>
      <point x="548" y="348"/>
      <point x="456" y="430"/>
      <point x="308" y="430" type="curve" smooth="yes"/>
      <point x="200" y="430"/>
      <point x="108" y="388"/>
      <point x="72" y="312" type="curve"/>
      <point x="80" y="268" type="line"/>
      <point x="110" y="344"/>
      <point x="191" y="392"/>
      <point x="304" y="392" type="curve" smooth="yes"/>
      <point x="418" y="392"/>
      <point x="484" y="349"/>
      <point x="484" y="276" type="curve" smooth="yes"/>
      <point x="484" y="203"/>
      <point x="419" y="160"/>
      <point x="308" y="160" type="curve" smooth="yes"/>
      <point x="169" y="160"/>
      <point x="88" y="229"/>
      <point x="88" y="348" type="curve" smooth="yes"/>
      <point x="88" y="469"/>
      <point x="171" y="540"/>
      <point x="312" y="540" type="curve" smooth="yes"/>
      <point x="398" y="540"/>
      <point x="464" y="513"/>
      <point x="480" y="470" type="curve"/>
      <point x="512" y="476" type="line"/>
      <point x="512" y="616"/>
      <point x="428" y="708"/>
      <point x="300" y="708" type="curve" smooth="yes"/>
      <point x="146" y="708"/>
      <point x="48" y="568"/>
      <point x="48" y="352" type="curve" smooth="yes"/>
      <point x="48" y="132"/>
      <point x="150" y="-8"/>
    </contour>
  </outline>
</glyph>
<glyph name="seven" format="2">
  <advance width="488"/>
  <unicode hex="0037"/>
  <outline>
    <contour>
      <point x="124" y="0" type="line"/>
      <point x="180" y="0" type="line"/>
      <point x="464" y="540" type="line"/>
      <point x="468" y="700" type="line"/>
      <point x="16" y="700" type="line"/>
      <point x="16" y="508" type="line"/>
      <point x="408" y="508" type="line"/>
      <point x="404" y="516" type="line"/>
    </contour>
  </outline>
</glyph>
<glyph name="eight" format="2">
  <advance width="604"/>
  <unicode hex="0038"/>
  <outline>
    <contour>
      <point x="302" y="-8" type="curve" smooth="yes"/>
      <point x="461" y="-8"/>
      <point x="564" y="64"/>
      <point x="564" y="176" type="curve" smooth="yes"/>
      <point x="564" y="264"/>
      <point x="500" y="330"/>
      <point x="400" y="342" type="curve"/>
      <point x="400" y="354" type="line"/>
      <point x="488" y="369"/>
      <point x="544" y="434"/>
      <point x="544" y="520" type="curve" smooth="yes"/>
      <point x="544" y="634"/>
      <point x="449" y="708"/>
      <point x="302" y="708" type="curve" smooth="yes"/>
      <point x="155" y="708"/>
      <point x="60" y="634"/>
      <point x="60" y="520" type="curve" smooth="yes"/>
      <point x="60" y="434"/>
      <point x="116" y="369"/>
      <point x="204" y="354" type="curve"/>
      <point x="204" y="342" type="line"/>
      <point x="104" y="330"/>
      <point x="40" y="264"/>
      <point x="40" y="176" type="curve" smooth="yes"/>
      <point x="40" y="64"/>
      <point x="143" y="-8"/>
    </contour>
    <contour>
      <point x="302" y="150" type="curve" smooth="yes"/>
      <point x="185" y="150"/>
      <point x="114" y="182"/>
      <point x="114" y="238" type="curve" smooth="yes"/>
      <point x="114" y="294"/>
      <point x="185" y="326"/>
      <point x="302" y="326" type="curve" smooth="yes"/>
      <point x="419" y="326"/>
      <point x="490" y="294"/>
      <point x="490" y="238" type="curve" smooth="yes"/>
      <point x="490" y="182"/>
      <point x="419" y="150"/>
    </contour>
    <contour>
      <point x="302" y="370" type="curve" smooth="yes"/>
      <point x="192" y="370"/>
      <point x="128" y="403"/>
      <point x="128" y="459" type="curve" smooth="yes"/>
      <point x="128" y="515"/>
      <point x="192" y="548"/>
      <point x="302" y="548" type="curve" smooth="yes"/>
      <point x="412" y="548"/>
      <point x="476" y="515"/>
      <point x="476" y="459" type="curve" smooth="yes"/>
      <point x="476" y="403"/>
      <point x="412" y="370"/>
    </contour>
  </outline>
</glyph>
<glyph name="nine" format="2">
  <advance width="572"/>
  <unicode hex="0039"/>
  <outline>
    <contour>
      <point x="268" y="-8" type="curve" smooth="yes"/>
      <point x="428" y="-8"/>
      <point x="524" y="128"/>
      <point x="524" y="360" type="curve" smooth="yes"/>
      <point x="524" y="584"/>
      <point x="440" y="708"/>
      <point x="272" y="708" type="curve" smooth="yes"/>
      <point x="133" y="708"/>
      <point x="44" y="620"/>
      <point x="44" y="484" type="curve" smooth="yes"/>
      <point x="44" y="348"/>
      <point x="140" y="260"/>
      <point x="290" y="260" type="curve" smooth="yes"/>
      <point x="402" y="260"/>
      <point x="486" y="308"/>
      <point x="506" y="388" type="curve"/>
      <point x="496" y="432" type="line"/>
      <point x="480" y="344"/>
      <point x="404" y="298"/>
      <point x="292" y="298" type="curve" smooth="yes"/>
      <point x="181" y="298"/>
      <point x="116" y="344"/>
      <point x="116" y="422" type="curve" smooth="yes"/>
      <point x="116" y="499"/>
      <point x="178" y="544"/>
      <point x="284" y="544" type="curve" smooth="yes"/>
      <point x="413" y="544"/>
      <point x="488" y="476"/>
      <point x="488" y="360" type="curve" smooth="yes"/>
      <point x="488" y="229"/>
      <point x="402" y="152"/>
      <point x="256" y="152" type="curve" smooth="yes"/>
      <point x="162" y="152"/>
      <point x="90" y="184"/>
      <point x="78" y="236" type="curve"/>
      <point x="46" y="230" type="line"/>
      <point x="46" y="85"/>
      <point x="136" y="-8"/>
    </contour>
  </outline>
</glyph>
<glyph name="less" format="2">
  <advance width="564"/>
  <unicode hex="003C"/>
  <outline>
    <contour>
      <point x="504" y="60" type="line"/>
      <point x="504" y="136" type="line"/>
      <point x="88" y="275" type="line"/>
      <point x="88" y="287" type="line"/>
      <point x="504" y="432" type="line"/>
      <point x="504" y="508" type="line"/>
      <point x="52" y="326" type="line"/>
      <point x="52" y="238" type="line"/>
    </contour>
  </outline>
</glyph>
<glyph name="equal" format="2">
  <advance width="564"/>
  <unicode hex="003D"/>
  <outline>
    <contour>
      <point x="64" y="156" type="line"/>
      <point x="500" y="156" type="line"/>
      <point x="500" y="218" type="line"/>
      <point x="64" y="218" type="line"/>
    </contour>
    <contour>
      <point x="64" y="334" type="line"/>
      <point x="500" y="334" type="line"/>
      <point x="500" y="396" type="line"/>
      <point x="64" y="396" type="line"/>
    </contour>
  </outline>
</glyph>
<glyph name="question" format="2">
  <advance width="520"/>
  <unicode hex="003F"/>
  <outline>
    <contour>
      <point x="220" y="180" type="curve"/>
      <point x="256" y="180" type="line"/>
      <point x="256" y="304"/>
      <point x="476" y="304"/>
      <point x="476" y="508" type="curve" smooth="yes"/>
      <point x="476" y="630"/>
      <point x="393" y="708"/>
      <point x="264" y="708" type="curve" smooth="yes"/>
      <point x="116" y="708"/>
      <point x="28" y="604"/>
      <point x="28" y="436" type="curve"/>
      <point x="60" y="432" type="line"/>
      <point x="76" y="505"/>
      <point x="145" y="548"/>
      <point x="248" y="548" type="curve" smooth="yes"/>
      <point x="347" y="548"/>
      <point x="404" y="508"/>
      <point x="404" y="440" type="curve" smooth="yes"/>
      <point x="404" y="316"/>
      <point x="220" y="324"/>
    </contour>
    <component base="period" xOffset="128"/>
  </outline>
</glyph>
<glyph name="at" format="2">
  <advance width="872"/>
  <unicode hex="0040"/>
  <outline>
    <contour>
      <point x="648" y="-154" type="curve"/>
      <point x="636" y="20" type="line"/>
      <point x="287" y="-44"/>
      <point x="84" y="77"/>
      <point x="84" y="348" type="curve" smooth="yes"/>
      <point x="84" y="565"/>
      <point x="218" y="692"/>
      <point x="448" y="692" type="curve" smooth="yes"/>
      <point x="665" y="692"/>
      <point x="792" y="567"/>
      <point x="792" y="352" type="curve" smooth="yes"/>
      <point x="792" y="253"/>
      <point x="760" y="196"/>
      <point x="706" y="196" type="curve" smooth="yes"/>
      <point x="669" y="196"/>
      <point x="648" y="217"/>
      <point x="648" y="252" type="curve" smooth="yes"/>
      <point x="648" y="544" type="line"/>
      <point x="600" y="544" type="line"/>
      <point x="616" y="416" type="line"/>
      <point x="604" y="416" type="line"/>
      <point x="584" y="496"/>
      <point x="508" y="552"/>
      <point x="408" y="552" type="curve" smooth="yes"/>
      <point x="280" y="552"/>
      <point x="196" y="460"/>
      <point x="196" y="324" type="curve" smooth="yes"/>
      <point x="196" y="184"/>
      <point x="288" y="92"/>
      <point x="428" y="92" type="curve" smooth="yes"/>
      <point x="520" y="92"/>
      <point x="584" y="132"/>
      <point x="608" y="188" type="curve"/>
      <point x="620" y="188" type="line"/>
      <point x="620" y="132"/>
      <point x="654" y="92"/>
      <point x="704" y="92" type="curve" smooth="yes"/>
      <point x="784" y="92"/>
      <point x="836" y="186"/>
      <point x="836" y="332" type="curve" smooth="yes"/>
      <point x="836" y="575"/>
      <point x="684" y="732"/>
      <point x="447" y="732" type="curve" smooth="yes"/>
      <point x="197" y="732"/>
      <point x="36" y="569"/>
      <point x="36" y="316" type="curve" smooth="yes"/>
      <point x="36" y="-31"/>
      <point x="276" y="-215"/>
    </contour>
    <contour>
      <point x="436" y="130" type="curve" smooth="yes"/>
      <point x="329" y="130"/>
      <point x="266" y="179"/>
      <point x="266" y="264" type="curve" smooth="yes"/>
      <point x="266" y="347"/>
      <point x="329" y="396"/>
      <point x="438" y="396" type="curve" smooth="yes"/>
      <point x="508" y="396"/>
      <point x="573" y="373"/>
      <point x="604" y="336" type="curve"/>
      <point x="604" y="256" type="line"/>
      <point x="596" y="176"/>
      <point x="534" y="130"/>
    </contour>
  </outline>
</glyph>
<glyph name="A" format="2">
  <advance width="632"/>
  <unicode hex="0041"/>
  <note>

</note>
  <anchor x="632" y="0" name="ogonek"/>
  <anchor x="332" y="700" name="top"/>
  <outline>
    <contour>
      <point x="2" y="0" type="line"/>
      <point x="154" y="0" type="line"/>
      <point x="370" y="592" type="line"/>
      <point x="382" y="592" type="line"/>
      <point x="582" y="0" type="line"/>
      <point x="632" y="0" type="line"/>
      <point x="392" y="700" type="line"/>
      <point x="272" y="700" type="line"/>
    </contour>
    <contour>
      <point x="196" y="176" type="line"/>
      <point x="544" y="176" type="line"/>
      <point x="544" y="224" type="line"/>
      <point x="196" y="224" type="line"/>
    </contour>
  </outline>
</glyph>
<glyph name="B" format="2">
  <advance width="612"/>
  <unicode hex="0042"/>
  <outline>
    <contour>
      <point x="60" y="0" type="line"/>
      <point x="400" y="0" type="line" smooth="yes"/>
      <point x="512" y="0"/>
      <point x="584" y="70"/>
      <point x="584" y="180" type="curve" smooth="yes"/>
      <point x="584" y="270"/>
      <point x="537" y="335"/>
      <point x="464" y="347" type="curve"/>
      <point x="464" y="359" type="line"/>
      <point x="520" y="376"/>
      <point x="556" y="436"/>
      <point x="556" y="512" type="curve" smooth="yes"/>
      <point x="556" y="626"/>
      <point x="486" y="700"/>
      <point x="376" y="700" type="curve" smooth="yes"/>
      <point x="60" y="700" type="line"/>
    </contour>
    <contour>
      <point x="110" y="172" type="line"/>
      <point x="110" y="524" type="line"/>
      <point x="386" y="524" type="line" smooth="yes"/>
      <point x="453" y="524"/>
      <point x="488" y="498"/>
      <point x="488" y="448" type="curve" smooth="yes"/>
      <point x="488" y="398"/>
      <point x="454" y="372"/>
      <point x="390" y="372" type="curve" smooth="yes"/>
      <point x="90" y="372" type="line"/>
      <point x="90" y="326" type="line"/>
      <point x="418" y="326" type="line" smooth="yes"/>
      <point x="483" y="326"/>
      <point x="518" y="300"/>
      <point x="518" y="250" type="curve" smooth="yes"/>
      <point x="518" y="199"/>
      <point x="485" y="172"/>
      <point x="422" y="172" type="curve" smooth="yes"/>
    </contour>
  </outline>
</glyph>
<glyph name="C" format="2">
  <advance width="688"/>
  <unicode hex="0043"/>
  <anchor x="352" y="0" name="bottom"/>
  <anchor x="348" y="700" name="top"/>
  <outline>
    <contour>
      <point x="360" y="-8" type="curve" smooth="yes"/>
      <point x="540" y="-8"/>
      <point x="656" y="100"/>
      <point x="656" y="268" type="curve"/>
      <point x="624" y="272" type="line"/>
      <point x="604" y="206"/>
      <point x="510" y="168"/>
      <point x="368" y="168" type="curve" smooth="yes"/>
      <point x="185" y="168"/>
      <point x="78" y="235"/>
      <point x="78" y="350" type="curve" smooth="yes"/>
      <point x="78" y="462"/>
      <point x="178" y="528"/>
      <point x="348" y="528" type="curve" smooth="yes"/>
      <point x="487" y="528"/>
      <point x="582" y="486"/>
      <point x="606" y="416" type="curve"/>
      <point x="640" y="418" type="line"/>
      <point x="636" y="594"/>
      <point x="522" y="708"/>
      <point x="348" y="708" type="curve" smooth="yes"/>
      <point x="158" y="708"/>
      <point x="36" y="568"/>
      <point x="36" y="350" type="curve" smooth="yes"/>
      <point x="36" y="132"/>
      <point x="163" y="-8"/>
    </contour>
  </outline>
</glyph>
<glyph name="D" format="2">
  <advance width="652"/>
  <unicode hex="0044"/>
  <anchor x="312" y="700" name="top"/>
  <outline>
    <contour>
      <point x="90" y="0" type="line"/>
      <point x="324" y="0" type="line" smooth="yes"/>
      <point x="508" y="0"/>
      <point x="616" y="128"/>
      <point x="616" y="348" type="curve" smooth="yes"/>
      <point x="616" y="570"/>
      <point x="510" y="700"/>
      <point x="328" y="700" type="curve" smooth="yes"/>
      <point x="90" y="700" type="line"/>
      <point x="90" y="524" type="line"/>
      <point x="340" y="524" type="line" smooth="yes"/>
      <point x="492" y="524"/>
      <point x="574" y="462"/>
      <point x="574" y="348" type="curve" smooth="yes"/>
      <point x="574" y="236"/>
      <point x="492" y="172"/>
      <point x="336" y="172" type="curve" smooth="yes"/>
      <point x="90" y="172" type="line"/>
    </contour>
    <contour>
      <point x="60" y="0" type="line"/>
      <point x="110" y="0" type="line"/>
      <point x="110" y="700" type="line"/>
      <point x="60" y="700" type="line"/>
    </contour>
  </outline>
</glyph>
<glyph name="E" format="2">
  <advance width="584"/>
  <unicode hex="0045"/>
  <anchor x="536" y="0" name="ogonek"/>
  <anchor x="312" y="700" name="top"/>
  <outline>
    <contour>
      <point x="90" y="524" type="line"/>
      <point x="540" y="524" type="line"/>
      <point x="540" y="700" type="line"/>
      <point x="90" y="700" type="line"/>
    </contour>
    <contour>
      <point x="90" y="0" type="line"/>
      <point x="536" y="0" type="line"/>
      <point x="536" y="172" type="line"/>
      <point x="90" y="172" type="line"/>
    </contour>
    <contour>
      <point x="60" y="0" type="line"/>
      <point x="110" y="0" type="line"/>
      <point x="110" y="700" type="line"/>
      <point x="60" y="700" type="line"/>
    </contour>
    <contour>
      <point x="90" y="324" type="line"/>
      <point x="508" y="324" type="line"/>
      <point x="508" y="372" type="line"/>
      <point x="90" y="372" type="line"/>
    </contour>
  </outline>
</glyph>
<glyph name="F" format="2">
  <advance width="544"/>
  <unicode hex="0046"/>
  <outline>
    <contour>
      <point x="90" y="516" type="line"/>
      <point x="520" y="516" type="line"/>
      <point x="520" y="700" type="line"/>
      <point x="90" y="700" type="line"/>
    </contour>
    <contour>
      <point x="60" y="0" type="line"/>
      <point x="110" y="0" type="line"/>
      <point x="110" y="700" type="line"/>
      <point x="60" y="700" type="line"/>
    </contour>
    <contour>
      <point x="90" y="279" type="line"/>
      <point x="492" y="279" type="line"/>
      <point x="492" y="329" type="line"/>
      <point x="90" y="329" type="line"/>
    </contour>
  </outline>
</glyph>
<glyph name="G" format="2">
  <advance width="696"/>
  <unicode hex="0047"/>
  <anchor x="364" y="0" name="bottom"/>
  <anchor x="348" y="700" name="top"/>
  <outline>
    <contour>
      <point x="350" y="-8" type="curve" smooth="yes"/>
      <point x="474" y="-8"/>
      <point x="570" y="48"/>
      <point x="602" y="144" type="curve"/>
      <point x="614" y="144" type="line"/>
      <point x="598" y="0" type="line"/>
      <point x="648" y="0" type="line"/>
      <point x="648" y="344" type="line"/>
      <point x="264" y="344" type="line"/>
      <point x="264" y="296" type="line"/>
      <point x="594" y="296" type="line"/>
      <point x="594" y="264" type="line"/>
      <point x="578" y="203"/>
      <point x="492" y="168"/>
      <point x="360" y="168" type="curve" smooth="yes"/>
      <point x="182" y="168"/>
      <point x="78" y="234"/>
      <point x="78" y="348" type="curve" smooth="yes"/>
      <point x="78" y="462"/>
      <point x="180" y="528"/>
      <point x="356" y="528" type="curve" smooth="yes"/>
      <point x="496" y="528"/>
      <point x="580" y="488"/>
      <point x="604" y="424" type="curve"/>
      <point x="636" y="428" type="line"/>
      <point x="632" y="596"/>
      <point x="519" y="708"/>
      <point x="344" y="708" type="curve" smooth="yes"/>
      <point x="156" y="708"/>
      <point x="36" y="572"/>
      <point x="36" y="352" type="curve" smooth="yes"/>
      <point x="36" y="132"/>
      <point x="158" y="-8"/>
    </contour>
  </outline>
</glyph>
<glyph name="H" format="2">
  <advance width="660"/>
  <unicode hex="0048"/>
  <outline>
    <contour>
      <point x="60" y="0" type="line"/>
      <point x="110" y="0" type="line"/>
      <point x="110" y="700" type="line"/>
      <point x="60" y="700" type="line"/>
    </contour>
    <contour>
      <point x="550" y="0" type="line"/>
      <point x="600" y="0" type="line"/>
      <point x="600" y="700" type="line"/>
      <point x="550" y="700" type="line"/>
    </contour>
    <contour>
      <point x="90" y="253" type="line"/>
      <point x="570" y="253" type="line"/>
      <point x="570" y="443" type="line"/>
      <point x="90" y="443" type="line"/>
    </contour>
  </outline>
</glyph>
<glyph name="I" format="2">
  <advance width="170"/>
  <unicode hex="0049"/>
  <anchor x="110" y="0" name="ogonek"/>
  <anchor x="85" y="700" name="top"/>
  <outline>
    <contour>
      <point x="60" y="0" type="line"/>
      <point x="110" y="0" type="line"/>
      <point x="110" y="700" type="line"/>
      <point x="60" y="700" type="line"/>
    </contour>
  </outline>
</glyph>
<glyph name="J" format="2">
  <advance width="396"/>
  <unicode hex="004A"/>
  <note>
Add non-descendent ss
</note>
  <outline>
    <contour>
      <point x="8" y="-102" type="line"/>
      <point x="218" y="-136"/>
      <point x="340" y="-59"/>
      <point x="340" y="110" type="curve" smooth="yes"/>
      <point x="340" y="700" type="line"/>
      <point x="290" y="700" type="line"/>
      <point x="290" y="262" type="line" smooth="yes"/>
      <point x="290" y="135"/>
      <point x="190" y="81"/>
      <point x="16" y="114" type="curve"/>
    </contour>
  </outline>
</glyph>
<glyph name="K" format="2">
  <advance width="620"/>
  <unicode hex="004B"/>
  <anchor x="316" y="0" name="bottom"/>
  <outline>
    <contour>
      <point x="98" y="100" type="line"/>
      <point x="624" y="700" type="line"/>
      <point x="400" y="700" type="line"/>
      <point x="98" y="332" type="line"/>
    </contour>
    <contour>
      <point x="556" y="0" type="line"/>
      <point x="616" y="0" type="line"/>
      <point x="328" y="404" type="line"/>
      <point x="296" y="368" type="line"/>
    </contour>
    <component base="I"/>
  </outline>
</glyph>
<glyph name="L" format="2">
  <advance width="520"/>
  <unicode hex="004C"/>
  <anchor x="280" y="0" name="bottom"/>
  <anchor x="156" y="700" name="top"/>
  <anchor x="196" y="520" name="topright"/>
  <outline>
    <contour>
      <point x="90" y="0" type="line"/>
      <point x="510" y="0" type="line"/>
      <point x="510" y="188" type="line"/>
      <point x="90" y="188" type="line"/>
    </contour>
    <contour>
      <point x="60" y="0" type="line"/>
      <point x="110" y="0" type="line"/>
      <point x="110" y="700" type="line"/>
      <point x="60" y="700" type="line"/>
    </contour>
  </outline>
</glyph>
<glyph name="M" format="2">
  <advance width="804"/>
  <unicode hex="004D"/>
  <note>
nera
</note>
  <outline>
    <contour>
      <point x="60" y="0" type="line"/>
      <point x="110" y="0" type="line"/>
      <point x="110" y="528" type="line"/>
      <point x="122" y="528" type="line"/>
      <point x="366" y="0" type="line"/>
      <point x="446" y="0" type="line"/>
      <point x="682" y="528" type="line"/>
      <point x="694" y="528" type="line"/>
      <point x="694" y="0" type="line"/>
      <point x="744" y="0" type="line"/>
      <point x="744" y="700" type="line"/>
      <point x="624" y="700" type="line"/>
      <point x="416" y="212" type="line"/>
      <point x="404" y="212" type="line"/>
      <point x="184" y="700" type="line"/>
      <point x="60" y="700" type="line"/>
    </contour>
  </outline>
</glyph>
<glyph name="N" format="2">
  <advance width="664"/>
  <unicode hex="004E"/>
  <anchor x="324" y="0" name="bottom"/>
  <anchor x="352" y="700" name="top"/>
  <outline>
    <contour>
      <point x="60" y="0" type="line"/>
      <point x="110" y="0" type="line"/>
      <point x="110" y="524" type="line"/>
      <point x="122" y="524" type="line"/>
      <point x="478" y="0" type="line"/>
      <point x="604" y="0" type="line"/>
      <point x="604" y="700" type="line"/>
      <point x="554" y="700" type="line"/>
      <point x="554" y="176" type="line"/>
      <point x="542" y="176" type="line"/>
      <point x="188" y="700" type="line"/>
      <point x="60" y="700" type="line"/>
    </contour>
  </outline>
</glyph>
<glyph name="O" format="2">
  <advance width="712"/>
  <unicode hex="004F"/>
  <anchor x="644" y="10" name="ogonek"/>
  <anchor x="356" y="700" name="top"/>
  <outline>
    <contour>
      <point x="356" y="-8" type="curve" smooth="yes"/>
      <point x="551" y="-8"/>
      <point x="676" y="132"/>
      <point x="676" y="350" type="curve" smooth="yes"/>
      <point x="676" y="568"/>
      <point x="551" y="708"/>
      <point x="356" y="708" type="curve" smooth="yes"/>
      <point x="161" y="708"/>
      <point x="36" y="568"/>
      <point x="36" y="350" type="curve" smooth="yes"/>
      <point x="36" y="132"/>
      <point x="161" y="-8"/>
    </contour>
    <contour>
      <point x="356" y="168" type="curve" smooth="yes"/>
      <point x="180" y="168"/>
      <point x="78" y="234"/>
      <point x="78" y="348" type="curve" smooth="yes"/>
      <point x="78" y="462"/>
      <point x="180" y="528"/>
      <point x="356" y="528" type="curve" smooth="yes"/>
      <point x="532" y="528"/>
      <point x="634" y="462"/>
      <point x="634" y="348" type="curve" smooth="yes"/>
      <point x="634" y="234"/>
      <point x="532" y="168"/>
    </contour>
  </outline>
</glyph>
<glyph name="P" format="2">
  <advance width="576"/>
  <unicode hex="0050"/>
  <outline>
    <contour>
      <point x="60" y="0" type="line"/>
      <point x="110" y="0" type="line"/>
      <point x="110" y="510" type="line"/>
      <point x="328" y="510" type="line" smooth="yes"/>
      <point x="429" y="510"/>
      <point x="488" y="461"/>
      <point x="488" y="376" type="curve" smooth="yes"/>
      <point x="488" y="291"/>
      <point x="431" y="242"/>
      <point x="332" y="242" type="curve" smooth="yes"/>
      <point x="90" y="242" type="line"/>
      <point x="90" y="194" type="line"/>
      <point x="328" y="194" type="line" smooth="yes"/>
      <point x="476" y="194"/>
      <point x="568" y="292"/>
      <point x="568" y="446" type="curve" smooth="yes"/>
      <point x="568" y="602"/>
      <point x="478" y="700"/>
      <point x="332" y="700" type="curve" smooth="yes"/>
      <point x="60" y="700" type="line"/>
    </contour>
  </outline>
</glyph>
<glyph name="Q" format="2">
  <advance width="712"/>
  <unicode hex="0051"/>
  <outline>
    <contour>
      <point x="344" y="-140" type="line"/>
      <point x="384" y="-140" type="line"/>
      <point x="388" y="388" type="line"/>
      <point x="336" y="388" type="line"/>
    </contour>
    <component base="O"/>
  </outline>
</glyph>
<glyph name="R" format="2">
  <advance width="624"/>
  <unicode hex="0052"/>
  <anchor x="300" y="0" name="bottom"/>
  <anchor x="300" y="700" name="top"/>
  <outline>
    <contour>
      <point x="60" y="0" type="line"/>
      <point x="110" y="0" type="line"/>
      <point x="110" y="524" type="line"/>
      <point x="352" y="524" type="line" smooth="yes"/>
      <point x="449" y="524"/>
      <point x="500" y="485"/>
      <point x="500" y="412" type="curve" smooth="yes"/>
      <point x="500" y="336"/>
      <point x="447" y="296"/>
      <point x="348" y="296" type="curve" smooth="yes"/>
      <point x="90" y="296" type="line"/>
      <point x="90" y="252" type="line"/>
      <point x="332" y="252" type="line"/>
      <point x="308" y="272" type="line"/>
      <point x="424" y="0" type="line"/>
      <point x="596" y="0" type="line"/>
      <point x="452" y="300" type="line"/>
      <point x="452" y="276" type="line"/>
      <point x="536" y="304"/>
      <point x="588" y="386"/>
      <point x="588" y="484" type="curve" smooth="yes"/>
      <point x="588" y="614"/>
      <point x="500" y="700"/>
      <point x="368" y="700" type="curve" smooth="yes"/>
      <point x="60" y="700" type="line"/>
    </contour>
  </outline>
</glyph>
<glyph name="S" format="2">
  <advance width="604"/>
  <unicode hex="0053"/>
  <anchor x="304" y="0" name="bottom"/>
  <anchor x="292" y="700" name="top"/>
  <outline>
    <contour>
      <point x="320" y="-8" type="curve" smooth="yes"/>
      <point x="471" y="-8"/>
      <point x="568" y="69"/>
      <point x="568" y="188" type="curve" smooth="yes"/>
      <point x="568" y="292"/>
      <point x="492" y="363"/>
      <point x="368" y="372" type="curve" smooth="yes"/>
      <point x="256" y="380" type="line" smooth="yes"/>
      <point x="185" y="385"/>
      <point x="142" y="413"/>
      <point x="142" y="456" type="curve" smooth="yes"/>
      <point x="142" y="505"/>
      <point x="203" y="534"/>
      <point x="304" y="534" type="curve" smooth="yes"/>
      <point x="417" y="534"/>
      <point x="496" y="498"/>
      <point x="518" y="436" type="curve"/>
      <point x="548" y="440" type="line"/>
      <point x="548" y="602"/>
      <point x="444" y="708"/>
      <point x="284" y="708" type="curve" smooth="yes"/>
      <point x="144" y="708"/>
      <point x="52" y="632"/>
      <point x="52" y="516" type="curve" smooth="yes"/>
      <point x="52" y="417"/>
      <point x="119" y="347"/>
      <point x="224" y="340" type="curve" smooth="yes"/>
      <point x="340" y="332" type="line" smooth="yes"/>
      <point x="428" y="326"/>
      <point x="480" y="295"/>
      <point x="480" y="248" type="curve" smooth="yes"/>
      <point x="480" y="195"/>
      <point x="411" y="164"/>
      <point x="292" y="164" type="curve" smooth="yes"/>
      <point x="164" y="164"/>
      <point x="76" y="200"/>
      <point x="64" y="260" type="curve"/>
      <point x="32" y="254" type="line"/>
      <point x="32" y="88"/>
      <point x="144" y="-8"/>
    </contour>
  </outline>
</glyph>
<glyph name="T" format="2">
  <advance width="584"/>
  <unicode hex="0054"/>
  <anchor x="292" y="0" name="bottom"/>
  <anchor x="292" y="700" name="top"/>
  <outline>
    <contour>
      <point x="8" y="508" type="line"/>
      <point x="267" y="508" type="line"/>
      <point x="267" y="0" type="line"/>
      <point x="317" y="0" type="line"/>
      <point x="317" y="508" type="line"/>
      <point x="576" y="508" type="line"/>
      <point x="576" y="700" type="line"/>
      <point x="8" y="700" type="line"/>
    </contour>
  </outline>
</glyph>
<glyph name="U" format="2">
  <advance width="644"/>
  <unicode hex="0055"/>
  <anchor x="448" y="0" name="ogonek"/>
  <anchor x="321" y="700" name="top"/>
  <outline>
    <contour>
      <point x="322" y="-8" type="curve" smooth="yes"/>
      <point x="486" y="-8"/>
      <point x="592" y="102"/>
      <point x="592" y="272" type="curve" smooth="yes"/>
      <point x="592" y="700" type="line"/>
      <point x="542" y="700" type="line"/>
      <point x="542" y="344" type="line" smooth="yes"/>
      <point x="542" y="243"/>
      <point x="461" y="184"/>
      <point x="322" y="184" type="curve" smooth="yes"/>
      <point x="183" y="184"/>
      <point x="102" y="243"/>
      <point x="102" y="344" type="curve" smooth="yes"/>
      <point x="102" y="700" type="line"/>
      <point x="52" y="700" type="line"/>
      <point x="52" y="272" type="line" smooth="yes"/>
      <point x="52" y="102"/>
      <point x="158" y="-8"/>
    </contour>
  </outline>
</glyph>
<glyph name="V" format="2">
  <advance width="612"/>
  <unicode hex="0056"/>
  <note>
troppo nera
</note>
  <outline>
    <contour>
      <point x="264" y="0" type="line"/>
      <point x="370" y="0" type="line"/>
      <point x="610" y="700" type="line"/>
      <point x="560" y="700" type="line"/>
      <point x="372" y="140" type="line"/>
      <point x="360" y="140" type="line"/>
      <point x="156" y="700" type="line"/>
      <point x="0" y="700" type="line"/>
    </contour>
  </outline>
</glyph>
<glyph name="W" format="2">
  <advance width="864"/>
  <unicode hex="0057"/>
  <note>
troppo nera
</note>
  <outline>
    <contour>
      <point x="186" y="0" type="line"/>
      <point x="284" y="0" type="line"/>
      <point x="426" y="552" type="line"/>
      <point x="438" y="552" type="line"/>
      <point x="588" y="0" type="line"/>
      <point x="688" y="0" type="line"/>
      <point x="860" y="700" type="line"/>
      <point x="812" y="700" type="line"/>
      <point x="683" y="168" type="line"/>
      <point x="671" y="168" type="line"/>
      <point x="526" y="700" type="line"/>
      <point x="422" y="700" type="line"/>
      <point x="287" y="176" type="line"/>
      <point x="275" y="176" type="line"/>
      <point x="144" y="700" type="line"/>
      <point x="2" y="700" type="line"/>
    </contour>
  </outline>
</glyph>
<glyph name="X" format="2">
  <advance width="644"/>
  <unicode hex="0058"/>
  <outline>
    <contour>
      <point x="36" y="0" type="line"/>
      <point x="92" y="0" type="line"/>
      <point x="268" y="290" type="line"/>
      <point x="280" y="290" type="line"/>
      <point x="460" y="0" type="line"/>
      <point x="646" y="0" type="line"/>
      <point x="400" y="368" type="line"/>
      <point x="590" y="700" type="line"/>
      <point x="534" y="700" type="line"/>
      <point x="374" y="416" type="line"/>
      <point x="364" y="416" type="line"/>
      <point x="188" y="700" type="line"/>
      <point x="0" y="700" type="line"/>
      <point x="244" y="340" type="line"/>
    </contour>
  </outline>
</glyph>
<glyph name="Y" format="2">
  <advance width="596"/>
  <unicode hex="0059"/>
  <anchor x="332" y="700" name="top"/>
  <outline>
    <contour>
      <point x="296" y="0" type="line"/>
      <point x="346" y="0" type="line"/>
      <point x="346" y="188" type="line"/>
      <point x="600" y="700" type="line"/>
      <point x="548" y="700" type="line"/>
      <point x="374" y="344" type="line"/>
      <point x="362" y="344" type="line"/>
      <point x="176" y="700" type="line"/>
      <point x="-4" y="700" type="line"/>
      <point x="296" y="172" type="line"/>
    </contour>
  </outline>
</glyph>
<glyph name="Z" format="2">
  <advance width="584"/>
  <unicode hex="005A"/>
  <anchor x="292" y="700" name="top"/>
  <outline>
    <contour>
      <point x="44" y="0" type="line"/>
      <point x="542" y="0" type="line"/>
      <point x="542" y="170" type="line"/>
      <point x="118" y="170" type="line"/>
      <point x="118" y="180" type="line"/>
      <point x="536" y="518" type="line"/>
      <point x="536" y="700" type="line"/>
      <point x="40" y="700" type="line"/>
      <point x="40" y="528" type="line"/>
      <point x="460" y="528" type="line"/>
      <point x="460" y="518" type="line"/>
      <point x="44" y="180" type="line"/>
    </contour>
  </outline>
</glyph>
<glyph name="bracketleft" format="2">
  <advance width="312"/>
  <unicode hex="005B"/>
  <note>
spazio interno
</note>
  <outline>
    <contour>
      <point x="60" y="-211" type="line"/>
      <point x="290" y="-211" type="line"/>
      <point x="290" y="-141" type="line"/>
      <point x="104" y="-141" type="line"/>
      <point x="104" y="667" type="line"/>
      <point x="290" y="667" type="line"/>
      <point x="290" y="739" type="line"/>
      <point x="60" y="739" type="line"/>
    </contour>
  </outline>
</glyph>
<glyph name="backslash" format="2">
  <advance width="344"/>
  <unicode hex="005C"/>
  <outline>
    <contour>
      <point x="292" y="-120" type="line"/>
      <point x="336" y="-120" type="line"/>
      <point x="52" y="780" type="line"/>
      <point x="8" y="780" type="line"/>
    </contour>
  </outline>
</glyph>
<glyph name="asciicircum" format="2">
  <advance width="480"/>
  <unicode hex="005E"/>
  <outline>
    <contour>
      <point x="44" y="328" type="line"/>
      <point x="236" y="656" type="line"/>
      <point x="244" y="656" type="line"/>
      <point x="436" y="328" type="line"/>
      <point x="472" y="344" type="line"/>
      <point x="297" y="700" type="line"/>
      <point x="185" y="700" type="line"/>
      <point x="8" y="344" type="line"/>
    </contour>
  </outline>
</glyph>
<glyph name="a" format="2">
  <advance width="480"/>
  <unicode hex="0061"/>
  <anchor x="432" y="0" name="ogonek"/>
  <anchor x="244" y="520" name="top"/>
  <outline>
    <contour>
      <point x="388" y="0" type="line"/>
      <point x="432" y="0" type="line"/>
      <point x="432" y="316" type="line" smooth="yes"/>
      <point x="432" y="444"/>
      <point x="360" y="528"/>
      <point x="244" y="528" type="curve" smooth="yes"/>
      <point x="132" y="528"/>
      <point x="56" y="448"/>
      <point x="52" y="328" type="curve"/>
      <point x="82" y="322" type="line"/>
      <point x="94" y="358"/>
      <point x="152" y="376"/>
      <point x="234" y="376" type="curve" smooth="yes"/>
      <point x="336" y="376"/>
      <point x="396" y="348"/>
      <point x="396" y="304" type="curve" smooth="yes"/>
      <point x="396" y="200" type="line"/>
      <point x="384" y="164"/>
      <point x="325" y="140"/>
      <point x="232" y="140" type="curve" smooth="yes"/>
      <point x="146" y="140"/>
      <point x="96" y="161"/>
      <point x="96" y="196" type="curve" smooth="yes"/>
      <point x="96" y="221"/>
      <point x="121" y="236"/>
      <point x="164" y="236" type="curve" smooth="yes"/>
      <point x="407" y="236" type="line"/>
      <point x="407" y="274" type="line"/>
      <point x="186" y="274" type="line" smooth="yes"/>
      <point x="85" y="274"/>
      <point x="20" y="220"/>
      <point x="20" y="136" type="curve" smooth="yes"/>
      <point x="20" y="48"/>
      <point x="89" y="-8"/>
      <point x="196" y="-8" type="curve" smooth="yes"/>
      <point x="310" y="-8"/>
      <point x="388" y="56"/>
      <point x="396" y="156" type="curve"/>
      <point x="408" y="156" type="line"/>
    </contour>
  </outline>
</glyph>
<glyph name="c" format="2">
  <advance width="532"/>
  <unicode hex="0063"/>
  <anchor x="268" y="0" name="bottom"/>
  <anchor x="268" y="520" name="top"/>
  <outline>
    <contour>
      <point x="280" y="-8" type="curve" smooth="yes"/>
      <point x="411" y="-8"/>
      <point x="496" y="76"/>
      <point x="498" y="206" type="curve"/>
      <point x="468" y="210" type="line"/>
      <point x="448" y="170"/>
      <point x="381" y="150"/>
      <point x="282" y="150" type="curve" smooth="yes"/>
      <point x="148" y="150"/>
      <point x="70" y="188"/>
      <point x="70" y="260" type="curve" smooth="yes"/>
      <point x="70" y="331"/>
      <point x="145" y="368"/>
      <point x="274" y="368" type="curve" smooth="yes"/>
      <point x="374" y="368"/>
      <point x="442" y="344"/>
      <point x="458" y="304" type="curve"/>
      <point x="488" y="306" type="line"/>
      <point x="484" y="442"/>
      <point x="396" y="528"/>
      <point x="268" y="528" type="curve" smooth="yes"/>
      <point x="127" y="528"/>
      <point x="36" y="425"/>
      <point x="36" y="262" type="curve" smooth="yes"/>
      <point x="36" y="98"/>
      <point x="132" y="-8"/>
    </contour>
  </outline>
</glyph>
<glyph name="d" format="2">
  <advance width="564"/>
  <unicode hex="0064"/>
  <anchor x="504" y="520" name="topright"/>
  <outline>
    <contour>
      <point x="260" y="-8" type="curve" smooth="yes"/>
      <point x="365" y="-8"/>
      <point x="440" y="52"/>
      <point x="456" y="148" type="curve"/>
      <point x="468" y="148" type="line"/>
      <point x="460" y="0" type="line"/>
      <point x="504" y="0" type="line"/>
      <point x="504" y="750" type="line"/>
      <point x="456" y="750" type="line"/>
      <point x="472" y="400" type="line"/>
      <point x="460" y="400" type="line"/>
      <point x="434" y="478"/>
      <point x="357" y="528"/>
      <point x="264" y="528" type="curve" smooth="yes"/>
      <point x="125" y="528"/>
      <point x="36" y="422"/>
      <point x="36" y="256" type="curve" smooth="yes"/>
      <point x="36" y="92"/>
      <point x="124" y="-8"/>
    </contour>
    <contour>
      <point x="264" y="150" type="curve" smooth="yes"/>
      <point x="142" y="150"/>
      <point x="70" y="191"/>
      <point x="70" y="260" type="curve" smooth="yes"/>
      <point x="70" y="327"/>
      <point x="144" y="366"/>
      <point x="272" y="366" type="curve" smooth="yes"/>
      <point x="349" y="366"/>
      <point x="418" y="351"/>
      <point x="460" y="324" type="curve"/>
      <point x="460" y="232" type="line"/>
      <point x="444" y="180"/>
      <point x="372" y="150"/>
    </contour>
  </outline>
</glyph>
<glyph name="e" format="2">
  <advance width="528"/>
  <unicode hex="0065"/>
  <anchor x="412" y="0" name="ogonek"/>
  <anchor x="266" y="520" name="top"/>
  <outline>
    <contour>
      <point x="276" y="-8" type="curve" smooth="yes"/>
      <point x="403" y="-8"/>
      <point x="488" y="72"/>
      <point x="492" y="196" type="curve"/>
      <point x="462" y="200" type="line"/>
      <point x="442" y="165"/>
      <point x="377" y="144"/>
      <point x="284" y="144" type="curve" smooth="yes"/>
      <point x="149" y="144"/>
      <point x="70" y="187"/>
      <point x="70" y="260" type="curve" smooth="yes"/>
      <point x="70" y="331"/>
      <point x="140" y="372"/>
      <point x="260" y="372" type="curve" smooth="yes"/>
      <point x="372" y="372"/>
      <point x="444" y="334"/>
      <point x="448" y="274" type="curve"/>
      <point x="50" y="274" type="line"/>
      <point x="50" y="238" type="line"/>
      <point x="484" y="238" type="line"/>
      <point x="492" y="414"/>
      <point x="410" y="528"/>
      <point x="266" y="528" type="curve" smooth="yes"/>
      <point x="126" y="528"/>
      <point x="36" y="423"/>
      <point x="36" y="260" type="curve" smooth="yes"/>
      <point x="36" y="97"/>
      <point x="130" y="-8"/>
    </contour>
  </outline>
</glyph>
<glyph name="f" format="2">
  <advance width="320"/>
  <unicode hex="0066"/>
  <outline>
    <contour>
      <point x="86" y="0" type="line"/>
      <point x="130" y="0" type="line"/>
      <point x="130" y="364" type="line"/>
      <point x="304" y="364" type="line"/>
      <point x="304" y="520" type="line"/>
      <point x="118" y="520" type="line"/>
      <point x="118" y="524" type="line" smooth="yes"/>
      <point x="118" y="590"/>
      <point x="188" y="612"/>
      <point x="304" y="584" type="curve"/>
      <point x="312" y="752" type="line"/>
      <point x="172" y="776"/>
      <point x="86" y="720"/>
      <point x="86" y="600" type="curve" smooth="yes"/>
      <point x="86" y="520" type="line"/>
      <point x="12" y="520" type="line"/>
      <point x="12" y="364" type="line"/>
      <point x="86" y="364" type="line"/>
    </contour>
  </outline>
</glyph>
<glyph name="g" format="2">
  <advance width="552"/>
  <unicode hex="0067"/>
  <note>
Aggiustare coda
</note>
  <anchor x="288" y="520" name="top"/>
  <outline>
    <contour>
      <point x="276" y="72" type="curve" smooth="yes"/>
      <point x="420" y="72"/>
      <point x="512" y="161"/>
      <point x="512" y="300" type="curve" smooth="yes"/>
      <point x="512" y="439"/>
      <point x="420" y="528"/>
      <point x="276" y="528" type="curve" smooth="yes"/>
      <point x="132" y="528"/>
      <point x="40" y="439"/>
      <point x="40" y="300" type="curve" smooth="yes"/>
      <point x="40" y="161"/>
      <point x="132" y="72"/>
    </contour>
    <contour>
      <point x="196" y="-200" type="curve" smooth="yes"/>
      <point x="524" y="-200" type="line"/>
      <point x="524" y="-44" type="line"/>
      <point x="192" y="-44" type="line" smooth="yes"/>
      <point x="144" y="-44"/>
      <point x="116" y="-18"/>
      <point x="116" y="24" type="curve" smooth="yes"/>
      <point x="116" y="60"/>
      <point x="137" y="89"/>
      <point x="177" y="101" type="curve"/>
      <point x="164" y="120" type="line"/>
      <point x="84" y="104"/>
      <point x="32" y="40"/>
      <point x="32" y="-44" type="curve" smooth="yes"/>
      <point x="32" y="-139"/>
      <point x="96" y="-200"/>
    </contour>
    <contour>
      <point x="276" y="110" type="curve" smooth="yes"/>
      <point x="167" y="110"/>
      <point x="104" y="157"/>
      <point x="104" y="237" type="curve" smooth="yes"/>
      <point x="104" y="317"/>
      <point x="167" y="364"/>
      <point x="276" y="364" type="curve" smooth="yes"/>
      <point x="385" y="364"/>
      <point x="448" y="317"/>
      <point x="448" y="237" type="curve" smooth="yes"/>
      <point x="448" y="157"/>
      <point x="385" y="110"/>
    </contour>
    <contour>
      <point x="440" y="467" type="line"/>
      <point x="524" y="569" type="line"/>
      <point x="476" y="592" type="line"/>
      <point x="415" y="485" type="line"/>
    </contour>
  </outline>
</glyph>
<glyph name="h" format="2">
  <advance width="536"/>
  <unicode hex="0068"/>
  <outline>
    <contour>
      <point x="60" y="0" type="line"/>
      <point x="104" y="0" type="line"/>
      <point x="104" y="276" type="line"/>
      <point x="116" y="312"/>
      <point x="180" y="336"/>
      <point x="276" y="336" type="curve" smooth="yes"/>
      <point x="380" y="336"/>
      <point x="444" y="308"/>
      <point x="444" y="260" type="curve" smooth="yes"/>
      <point x="444" y="0" type="line"/>
      <point x="488" y="0" type="line"/>
      <point x="488" y="328" type="line" smooth="yes"/>
      <point x="488" y="448"/>
      <point x="412" y="528"/>
      <point x="292" y="528" type="curve" smooth="yes"/>
      <point x="192" y="528"/>
      <point x="116" y="472"/>
      <point x="104" y="376" type="curve"/>
      <point x="92" y="376" type="line"/>
      <point x="112" y="750" type="line"/>
      <point x="60" y="750" type="line"/>
    </contour>
  </outline>
</glyph>
<glyph name="k" format="2">
  <advance width="512"/>
  <unicode hex="006B"/>
  <anchor x="268" y="0" name="bottom"/>
  <outline>
    <contour>
      <point x="84" y="52" type="line"/>
      <point x="524" y="520" type="line"/>
      <point x="304" y="520" type="line"/>
      <point x="84" y="264" type="line"/>
    </contour>
    <contour>
      <point x="450" y="0" type="line"/>
      <point x="504" y="0" type="line"/>
      <point x="292" y="316" type="line"/>
      <point x="264" y="284" type="line"/>
    </contour>
    <component base="l"/>
  </outline>
</glyph>
<glyph name="l" format="2">
  <advance width="164"/>
  <unicode hex="006C"/>
  <anchor x="82" y="0" name="bottom"/>
  <anchor x="82" y="750" name="top"/>
  <anchor x="104" y="520" name="topright"/>
  <outline>
    <contour>
      <point x="60" y="0" type="line"/>
      <point x="104" y="0" type="line"/>
      <point x="104" y="750" type="line"/>
      <point x="60" y="750" type="line"/>
    </contour>
  </outline>
</glyph>
<glyph name="m" format="2">
  <advance width="852"/>
  <unicode hex="006D"/>
  <outline>
    <contour>
      <point x="56" y="0" type="line"/>
      <point x="100" y="0" type="line"/>
      <point x="100" y="280" type="line"/>
      <point x="112" y="315"/>
      <point x="169" y="336"/>
      <point x="254" y="336" type="curve" smooth="yes"/>
      <point x="351" y="336"/>
      <point x="408" y="309"/>
      <point x="408" y="264" type="curve" smooth="yes"/>
      <point x="408" y="0" type="line"/>
      <point x="452" y="0" type="line"/>
      <point x="452" y="280" type="line"/>
      <point x="464" y="315"/>
      <point x="521" y="336"/>
      <point x="606" y="336" type="curve" smooth="yes"/>
      <point x="703" y="336"/>
      <point x="760" y="309"/>
      <point x="760" y="264" type="curve" smooth="yes"/>
      <point x="760" y="0" type="line"/>
      <point x="804" y="0" type="line"/>
      <point x="804" y="324" type="line" smooth="yes"/>
      <point x="804" y="448"/>
      <point x="735" y="528"/>
      <point x="628" y="528" type="curve" smooth="yes"/>
      <point x="539" y="528"/>
      <point x="472" y="469"/>
      <point x="456" y="376" type="curve"/>
      <point x="444" y="376" type="line"/>
      <point x="432" y="469"/>
      <point x="366" y="528"/>
      <point x="276" y="528" type="curve" smooth="yes"/>
      <point x="181" y="528"/>
      <point x="112" y="469"/>
      <point x="100" y="376" type="curve"/>
      <point x="88" y="376" type="line"/>
      <point x="104" y="520" type="line"/>
      <point x="56" y="520" type="line"/>
    </contour>
  </outline>
</glyph>
<glyph name="n" format="2">
  <advance width="532"/>
  <unicode hex="006E"/>
  <anchor x="272" y="0" name="bottom"/>
  <anchor x="276" y="520" name="top"/>
  <outline>
    <contour>
      <point x="56" y="0" type="line"/>
      <point x="100" y="0" type="line"/>
      <point x="100" y="276" type="line"/>
      <point x="112" y="312"/>
      <point x="176" y="336"/>
      <point x="272" y="336" type="curve" smooth="yes"/>
      <point x="376" y="336"/>
      <point x="440" y="308"/>
      <point x="440" y="260" type="curve" smooth="yes"/>
      <point x="440" y="0" type="line"/>
      <point x="484" y="0" type="line"/>
      <point x="484" y="328" type="line" smooth="yes"/>
      <point x="484" y="448"/>
      <point x="408" y="528"/>
      <point x="288" y="528" type="curve" smooth="yes"/>
      <point x="188" y="528"/>
      <point x="112" y="472"/>
      <point x="100" y="376" type="curve"/>
      <point x="88" y="376" type="line"/>
      <point x="104" y="520" type="line"/>
      <point x="56" y="520" type="line"/>
    </contour>
  </outline>
</glyph>
<glyph name="o" format="2">
  <advance width="560"/>
  <unicode hex="006F"/>
  <anchor x="280" y="520" name="top"/>
  <outline>
    <contour>
      <point x="280" y="-8" type="curve" smooth="yes"/>
      <point x="428" y="-8"/>
      <point x="524" y="97"/>
      <point x="524" y="260" type="curve" smooth="yes"/>
      <point x="524" y="423"/>
      <point x="428" y="528"/>
      <point x="280" y="528" type="curve" smooth="yes"/>
      <point x="132" y="528"/>
      <point x="36" y="423"/>
      <point x="36" y="260" type="curve" smooth="yes"/>
      <point x="36" y="97"/>
      <point x="132" y="-8"/>
    </contour>
    <contour>
      <point x="280" y="150" type="curve" smooth="yes"/>
      <point x="147" y="150"/>
      <point x="70" y="190"/>
      <point x="70" y="259" type="curve" smooth="yes"/>
      <point x="70" y="328"/>
      <point x="147" y="368"/>
      <point x="280" y="368" type="curve" smooth="yes"/>
      <point x="413" y="368"/>
      <point x="490" y="328"/>
      <point x="490" y="259" type="curve" smooth="yes"/>
      <point x="490" y="190"/>
      <point x="413" y="150"/>
    </contour>
  </outline>
</glyph>
<glyph name="p" format="2">
  <advance width="556"/>
  <unicode hex="0070"/>
  <outline>
    <contour>
      <point x="56" y="-200" type="line"/>
      <point x="104" y="-200" type="line"/>
      <point x="88" y="120" type="line"/>
      <point x="100" y="120" type="line"/>
      <point x="126" y="42"/>
      <point x="204" y="-8"/>
      <point x="296" y="-8" type="curve" smooth="yes"/>
      <point x="432" y="-8"/>
      <point x="520" y="98"/>
      <point x="520" y="264" type="curve" smooth="yes"/>
      <point x="520" y="425"/>
      <point x="435" y="528"/>
      <point x="302" y="528" type="curve" smooth="yes"/>
      <point x="197" y="528"/>
      <point x="120" y="467"/>
      <point x="104" y="372" type="curve"/>
      <point x="92" y="372" type="line"/>
      <point x="100" y="520" type="line"/>
      <point x="56" y="520" type="line"/>
    </contour>
    <contour>
      <point x="286" y="150" type="curve" smooth="yes"/>
      <point x="210" y="150"/>
      <point x="141" y="165"/>
      <point x="100" y="192" type="curve"/>
      <point x="100" y="284" type="line"/>
      <point x="116" y="336"/>
      <point x="187" y="366"/>
      <point x="294" y="366" type="curve" smooth="yes"/>
      <point x="415" y="366"/>
      <point x="486" y="325"/>
      <point x="486" y="256" type="curve" smooth="yes"/>
      <point x="486" y="189"/>
      <point x="412" y="150"/>
    </contour>
  </outline>
</glyph>
<glyph name="q" format="2">
  <advance width="556"/>
  <unicode hex="0071"/>
  <outline>
    <contour>
      <point x="452" y="-200" type="line"/>
      <point x="500" y="-200" type="line"/>
      <point x="500" y="520" type="line"/>
      <point x="456" y="520" type="line"/>
      <point x="468" y="400" type="line"/>
      <point x="456" y="400" type="line"/>
      <point x="430" y="478"/>
      <point x="354" y="528"/>
      <point x="262" y="528" type="curve" smooth="yes"/>
      <point x="124" y="528"/>
      <point x="36" y="422"/>
      <point x="36" y="256" type="curve" smooth="yes"/>
      <point x="36" y="95"/>
      <point x="123" y="-8"/>
      <point x="258" y="-8" type="curve" smooth="yes"/>
      <point x="362" y="-8"/>
      <point x="436" y="52"/>
      <point x="452" y="148" type="curve"/>
      <point x="464" y="148" type="line"/>
    </contour>
    <contour>
      <point x="262" y="150" type="curve" smooth="yes"/>
      <point x="141" y="150"/>
      <point x="70" y="191"/>
      <point x="70" y="260" type="curve" smooth="yes"/>
      <point x="70" y="327"/>
      <point x="144" y="366"/>
      <point x="270" y="366" type="curve" smooth="yes"/>
      <point x="346" y="366"/>
      <point x="415" y="351"/>
      <point x="456" y="324" type="curve"/>
      <point x="456" y="232" type="line"/>
      <point x="440" y="180"/>
      <point x="369" y="150"/>
    </contour>
  </outline>
</glyph>
<glyph name="r" format="2">
  <advance width="340"/>
  <unicode hex="0072"/>
  <anchor x="82" y="0" name="bottom"/>
  <anchor x="180" y="520" name="top"/>
  <outline>
    <contour>
      <point x="56" y="0" type="line"/>
      <point x="100" y="0" type="line"/>
      <point x="100" y="253" type="line" smooth="yes"/>
      <point x="100" y="321"/>
      <point x="180" y="348"/>
      <point x="316" y="320" type="curve"/>
      <point x="324" y="522" type="line"/>
      <point x="200" y="546"/>
      <point x="112" y="492"/>
      <point x="100" y="376" type="curve"/>
      <point x="88" y="376" type="line"/>
      <point x="106" y="520" type="line"/>
      <point x="56" y="520" type="line"/>
    </contour>
  </outline>
</glyph>
<glyph name="s" format="2">
  <advance width="484"/>
  <unicode hex="0073"/>
  <anchor x="228" y="0" name="bottom"/>
  <anchor x="228" y="520" name="top"/>
  <outline>
    <contour>
      <point x="256" y="-8" type="curve" smooth="yes"/>
      <point x="375" y="-8"/>
      <point x="456" y="50"/>
      <point x="456" y="140" type="curve" smooth="yes"/>
      <point x="456" y="212"/>
      <point x="403" y="266"/>
      <point x="320" y="272" type="curve" smooth="yes"/>
      <point x="208" y="280" type="line" smooth="yes"/>
      <point x="148" y="284"/>
      <point x="116" y="300"/>
      <point x="116" y="328" type="curve" smooth="yes"/>
      <point x="116" y="361"/>
      <point x="164" y="378"/>
      <point x="248" y="378" type="curve" smooth="yes"/>
      <point x="334" y="378"/>
      <point x="396" y="356"/>
      <point x="408" y="316" type="curve"/>
      <point x="438" y="322" type="line"/>
      <point x="438" y="446"/>
      <point x="356" y="528"/>
      <point x="228" y="528" type="curve" smooth="yes"/>
      <point x="120" y="528"/>
      <point x="44" y="470"/>
      <point x="44" y="380" type="curve" smooth="yes"/>
      <point x="44" y="305"/>
      <point x="94" y="253"/>
      <point x="172" y="248" type="curve" smooth="yes"/>
      <point x="300" y="240" type="line" smooth="yes"/>
      <point x="358" y="236"/>
      <point x="388" y="219"/>
      <point x="388" y="192" type="curve" smooth="yes"/>
      <point x="388" y="158"/>
      <point x="336" y="140"/>
      <point x="244" y="140" type="curve" smooth="yes"/>
      <point x="140" y="140"/>
      <point x="70" y="164"/>
      <point x="58" y="206" type="curve"/>
      <point x="28" y="202" type="line"/>
      <point x="28" y="70"/>
      <point x="116" y="-8"/>
    </contour>
  </outline>
</glyph>
<glyph name="t" format="2">
  <advance width="324"/>
  <unicode hex="0074"/>
  <anchor x="158" y="0" name="bottom"/>
  <anchor x="132" y="540" name="topright"/>
  <outline>
    <contour>
      <point x="304" y="-2" type="curve"/>
      <point x="296" y="154" type="line"/>
      <point x="176" y="130"/>
      <point x="108" y="154"/>
      <point x="108" y="214" type="curve" smooth="yes"/>
      <point x="108" y="364" type="line"/>
      <point x="288" y="364" type="line"/>
      <point x="288" y="520" type="line"/>
      <point x="104" y="520" type="line"/>
      <point x="116" y="664" type="line"/>
      <point x="72" y="664" type="line"/>
      <point x="72" y="520" type="line"/>
      <point x="8" y="520" type="line"/>
      <point x="8" y="364" type="line"/>
      <point x="72" y="364" type="line"/>
      <point x="72" y="156" type="line" smooth="yes"/>
      <point x="72" y="36"/>
      <point x="160" y="-26"/>
    </contour>
  </outline>
</glyph>
<glyph name="u" format="2">
  <advance width="524"/>
  <unicode hex="0075"/>
  <anchor x="468" y="0" name="ogonek"/>
  <anchor x="260" y="520" name="top"/>
  <outline>
    <contour>
      <point x="244" y="-8" type="curve" smooth="yes"/>
      <point x="340" y="-8"/>
      <point x="408" y="44"/>
      <point x="424" y="120" type="curve"/>
      <point x="436" y="120" type="line"/>
      <point x="420" y="0" type="line"/>
      <point x="468" y="0" type="line"/>
      <point x="468" y="520" type="line"/>
      <point x="424" y="520" type="line"/>
      <point x="424" y="240" type="line"/>
      <point x="410" y="203"/>
      <point x="350" y="182"/>
      <point x="260" y="182" type="curve" smooth="yes"/>
      <point x="154" y="182"/>
      <point x="92" y="211"/>
      <point x="92" y="260" type="curve" smooth="yes"/>
      <point x="92" y="520" type="line"/>
      <point x="48" y="520" type="line"/>
      <point x="48" y="184" type="line" smooth="yes"/>
      <point x="48" y="68"/>
      <point x="128" y="-8"/>
    </contour>
  </outline>
</glyph>
<glyph name="v" format="2">
  <advance width="508"/>
  <unicode hex="0076"/>
  <outline>
    <contour>
      <point x="207" y="0" type="line"/>
      <point x="319" y="0" type="line"/>
      <point x="506" y="520" type="line"/>
      <point x="458" y="520" type="line"/>
      <point x="316" y="124" type="line"/>
      <point x="304" y="124" type="line"/>
      <point x="154" y="520" type="line"/>
      <point x="0" y="520" type="line"/>
    </contour>
  </outline>
</glyph>
<glyph name="w" format="2">
  <advance width="696"/>
  <unicode hex="0077"/>
  <outline>
    <contour>
      <point x="144" y="0" type="line"/>
      <point x="242" y="0" type="line"/>
      <point x="340" y="396" type="line"/>
      <point x="348" y="396" type="line"/>
      <point x="458" y="0" type="line"/>
      <point x="558" y="0" type="line"/>
      <point x="690" y="520" type="line"/>
      <point x="644" y="520" type="line"/>
      <point x="552" y="132" type="line"/>
      <point x="540" y="132" type="line"/>
      <point x="432" y="520" type="line"/>
      <point x="332" y="520" type="line"/>
      <point x="240" y="132" type="line"/>
      <point x="228" y="132" type="line"/>
      <point x="140" y="520" type="line"/>
      <point x="4" y="520" type="line"/>
    </contour>
  </outline>
</glyph>
<glyph name="x" format="2">
  <advance width="516"/>
  <unicode hex="0078"/>
  <outline>
    <contour>
      <point x="16" y="0" type="line"/>
      <point x="68" y="0" type="line"/>
      <point x="194" y="208" type="line"/>
      <point x="206" y="208" type="line"/>
      <point x="336" y="0" type="line"/>
      <point x="524" y="0" type="line"/>
      <point x="348" y="264" type="line"/>
      <point x="492" y="520" type="line"/>
      <point x="440" y="520" type="line"/>
      <point x="328" y="316" type="line"/>
      <point x="316" y="316" type="line"/>
      <point x="190" y="520" type="line"/>
      <point x="0" y="520" type="line"/>
      <point x="176" y="260" type="line"/>
    </contour>
  </outline>
</glyph>
<glyph name="y" format="2">
  <advance width="504"/>
  <unicode hex="0079"/>
  <anchor x="264" y="520" name="top"/>
  <outline>
    <contour>
      <point x="202" y="-200" type="line"/>
      <point x="250" y="-200" type="line"/>
      <point x="502" y="520" type="line"/>
      <point x="454" y="520" type="line"/>
      <point x="313" y="112" type="line"/>
      <point x="301" y="112" type="line"/>
      <point x="152" y="520" type="line"/>
      <point x="0" y="520" type="line"/>
      <point x="200" y="0" type="line"/>
      <point x="274" y="0" type="line"/>
    </contour>
  </outline>
</glyph>
<glyph name="z" format="2">
  <advance width="476"/>
  <unicode hex="007A"/>
  <anchor x="236" y="520" name="top"/>
  <outline>
    <contour>
      <point x="44" y="0" type="line"/>
      <point x="440" y="0" type="line"/>
      <point x="440" y="152" type="line"/>
      <point x="122" y="152" type="line"/>
      <point x="122" y="164" type="line"/>
      <point x="436" y="352" type="line"/>
      <point x="436" y="520" type="line"/>
      <point x="40" y="520" type="line"/>
      <point x="40" y="366" type="line"/>
      <point x="356" y="366" type="line"/>
      <point x="356" y="354" type="line"/>
      <point x="44" y="164" type="line"/>
    </contour>
  </outline>
</glyph>
<glyph name="braceleft" format="2">
  <advance width="316"/>
  <unicode hex="007B"/>
  <note>
spazio interno
</note>
  <outline>
    <contour>
      <point x="276" y="-221" type="curve" smooth="yes"/>
      <point x="300" y="-221" type="line"/>
      <point x="300" y="-149" type="line"/>
      <point x="204" y="-149"/>
      <point x="144" y="-70"/>
      <point x="144" y="62" type="curve" smooth="yes"/>
      <point x="144" y="170"/>
      <point x="114" y="237"/>
      <point x="56" y="258" type="curve"/>
      <point x="56" y="270" type="line"/>
      <point x="114" y="291"/>
      <point x="144" y="356"/>
      <point x="144" y="464" type="curve" smooth="yes"/>
      <point x="144" y="597"/>
      <point x="204" y="675"/>
      <point x="300" y="675" type="curve"/>
      <point x="300" y="749" type="line"/>
      <point x="276" y="749" type="line" smooth="yes"/>
      <point x="169" y="749"/>
      <point x="100" y="641"/>
      <point x="100" y="474" type="curve" smooth="yes"/>
      <point x="100" y="366"/>
      <point x="71" y="303"/>
      <point x="20" y="303" type="curve"/>
      <point x="20" y="223" type="line"/>
      <point x="71" y="223"/>
      <point x="100" y="159"/>
      <point x="100" y="48" type="curve" smooth="yes"/>
      <point x="100" y="-116"/>
      <point x="169" y="-221"/>
    </contour>
  </outline>
</glyph>
<glyph name="asciitilde" format="2">
  <advance width="564"/>
  <unicode hex="007E"/>
  <outline>
    <contour>
      <point x="380" y="200" type="curve" smooth="yes"/>
      <point x="458" y="200"/>
      <point x="508" y="256"/>
      <point x="508" y="344" type="curve"/>
      <point x="464" y="344" type="line"/>
      <point x="464" y="299"/>
      <point x="437" y="272"/>
      <point x="392" y="272" type="curve" smooth="yes"/>
      <point x="312" y="272"/>
      <point x="284" y="360"/>
      <point x="184" y="360" type="curve" smooth="yes"/>
      <point x="106" y="360"/>
      <point x="56" y="304"/>
      <point x="56" y="216" type="curve"/>
      <point x="100" y="216" type="line"/>
      <point x="100" y="261"/>
      <point x="127" y="288"/>
      <point x="172" y="288" type="curve" smooth="yes"/>
      <point x="252" y="288"/>
      <point x="280" y="200"/>
    </contour>
  </outline>
</glyph>
<glyph name="exclamdown" format="2">
  <advance width="220"/>
  <unicode hex="00A1"/>
  <outline>
    <contour>
      <point x="84" y="-200" type="line"/>
      <point x="136" y="-200" type="line"/>
      <point x="124" y="336" type="line"/>
      <point x="96" y="336" type="line"/>
    </contour>
    <component base="period" xOffset="-4" yOffset="396"/>
  </outline>
</glyph>
<glyph name="sterling" format="2">
  <advance width="560"/>
  <unicode hex="00A3"/>
  <outline>
    <contour>
      <point x="52" y="0" type="line"/>
      <point x="534" y="0" type="line"/>
      <point x="534" y="172" type="line"/>
      <point x="136" y="172" type="line"/>
      <point x="136" y="184" type="line"/>
      <point x="208" y="212"/>
      <point x="236" y="247"/>
      <point x="236" y="296" type="curve" smooth="yes"/>
      <point x="236" y="376"/>
      <point x="156" y="384"/>
      <point x="156" y="444" type="curve" smooth="yes"/>
      <point x="156" y="497"/>
      <point x="216" y="528"/>
      <point x="320" y="528" type="curve" smooth="yes"/>
      <point x="421" y="528"/>
      <point x="493" y="494"/>
      <point x="508" y="436" type="curve"/>
      <point x="540" y="440" type="line"/>
      <point x="540" y="599"/>
      <point x="445" y="708"/>
      <point x="298" y="708" type="curve" smooth="yes"/>
      <point x="153" y="708"/>
      <point x="60" y="631"/>
      <point x="60" y="512" type="curve" smooth="yes"/>
      <point x="60" y="372"/>
      <point x="192" y="364"/>
      <point x="192" y="284" type="curve" smooth="yes"/>
      <point x="192" y="240"/>
      <point x="152" y="208"/>
      <point x="52" y="192" type="curve"/>
    </contour>
    <contour>
      <point x="32" y="288" type="line"/>
      <point x="476" y="288" type="line"/>
      <point x="478" y="340" type="line"/>
      <point x="34" y="340" type="line"/>
    </contour>
  </outline>
</glyph>
<glyph name="currency" format="2">
  <advance width="452"/>
  <unicode hex="00A4"/>
  <outline>
    <contour>
      <point x="224" y="148" type="curve" smooth="yes"/>
      <point x="332" y="148"/>
      <point x="402" y="221"/>
      <point x="402" y="335" type="curve" smooth="yes"/>
      <point x="402" y="452"/>
      <point x="332" y="528"/>
      <point x="224" y="528" type="curve" smooth="yes"/>
      <point x="116" y="528"/>
      <point x="46" y="452"/>
      <point x="46" y="335" type="curve" smooth="yes"/>
      <point x="46" y="221"/>
      <point x="116" y="148"/>
    </contour>
    <contour>
      <point x="80" y="112" type="line"/>
      <point x="162" y="208" type="line"/>
      <point x="132" y="236" type="line"/>
      <point x="44" y="148" type="line"/>
    </contour>
    <contour>
      <point x="370" y="112" type="line"/>
      <point x="408" y="148" type="line"/>
      <point x="320" y="236" type="line"/>
      <point x="288" y="208" type="line"/>
    </contour>
    <contour>
      <point x="224" y="264" type="curve" smooth="yes"/>
      <point x="136" y="264"/>
      <point x="84" y="291"/>
      <point x="84" y="337" type="curve" smooth="yes"/>
      <point x="84" y="383"/>
      <point x="136" y="410"/>
      <point x="224" y="410" type="curve" smooth="yes"/>
      <point x="312" y="410"/>
      <point x="364" y="383"/>
      <point x="364" y="337" type="curve" smooth="yes"/>
      <point x="364" y="291"/>
      <point x="312" y="264"/>
    </contour>
    <contour>
      <point x="134" y="436" type="line"/>
      <point x="164" y="464" type="line"/>
      <point x="82" y="560" type="line"/>
      <point x="46" y="524" type="line"/>
    </contour>
    <contour>
      <point x="318" y="436" type="line"/>
      <point x="406" y="524" type="line"/>
      <point x="368" y="560" type="line"/>
      <point x="286" y="464" type="line"/>
    </contour>
  </outline>
</glyph>
<glyph name="yen" format="2">
  <advance width="604"/>
  <unicode hex="00A5"/>
  <outline>
    <contour>
      <point x="112" y="232" type="line"/>
      <point x="544" y="232" type="line"/>
      <point x="544" y="276" type="line"/>
      <point x="112" y="276" type="line"/>
    </contour>
    <contour>
      <point x="114" y="152" type="line"/>
      <point x="542" y="152" type="line"/>
      <point x="542" y="196" type="line"/>
      <point x="114" y="196" type="line"/>
    </contour>
    <component base="Y" xOffset="4"/>
  </outline>
</glyph>
<glyph name="brokenbar" format="2">
  <advance width="162"/>
  <unicode hex="00A6"/>
  <outline>
    <contour>
      <point x="60" y="334" type="line"/>
      <point x="102" y="334" type="line"/>
      <point x="102" y="730" type="line"/>
      <point x="60" y="730" type="line"/>
    </contour>
    <contour>
      <point x="60" y="-200" type="line"/>
      <point x="102" y="-200" type="line"/>
      <point x="102" y="180" type="line"/>
      <point x="60" y="180" type="line"/>
    </contour>
  </outline>
</glyph>
<glyph name="section" format="2">
  <advance width="556"/>
  <unicode hex="00A7"/>
  <outline>
    <contour>
      <point x="288" y="-212" type="curve" smooth="yes"/>
      <point x="424" y="-212"/>
      <point x="512" y="-148"/>
      <point x="512" y="-40" type="curve" smooth="yes"/>
      <point x="512" y="28"/>
      <point x="476" y="80"/>
      <point x="412" y="104" type="curve"/>
      <point x="412" y="116" type="line"/>
      <point x="468" y="144"/>
      <point x="504" y="194"/>
      <point x="504" y="258" type="curve" smooth="yes"/>
      <point x="504" y="350"/>
      <point x="436" y="411"/>
      <point x="324" y="418" type="curve" smooth="yes"/>
      <point x="232" y="424" type="line" smooth="yes"/>
      <point x="174" y="428"/>
      <point x="138" y="452"/>
      <point x="138" y="488" type="curve" smooth="yes"/>
      <point x="138" y="532"/>
      <point x="193" y="558"/>
      <point x="284" y="558" type="curve" smooth="yes"/>
      <point x="379" y="558"/>
      <point x="440" y="531"/>
      <point x="456" y="486" type="curve"/>
      <point x="486" y="490" type="line"/>
      <point x="486" y="630"/>
      <point x="397" y="708"/>
      <point x="261" y="708" type="curve" smooth="yes"/>
      <point x="142" y="708"/>
      <point x="64" y="643"/>
      <point x="64" y="542" type="curve" smooth="yes"/>
      <point x="64" y="479"/>
      <point x="96" y="430"/>
      <point x="152" y="406" type="curve"/>
      <point x="152" y="394" type="line"/>
      <point x="96" y="366"/>
      <point x="60" y="316"/>
      <point x="60" y="252" type="curve" smooth="yes"/>
      <point x="60" y="167"/>
      <point x="118" y="107"/>
      <point x="220" y="96" type="curve" smooth="yes"/>
      <point x="332" y="84" type="line" smooth="yes"/>
      <point x="400" y="77"/>
      <point x="440" y="50"/>
      <point x="440" y="12" type="curve" smooth="yes"/>
      <point x="440" y="-36"/>
      <point x="377" y="-64"/>
      <point x="269" y="-64" type="curve" smooth="yes"/>
      <point x="154" y="-64"/>
      <point x="81" y="-36"/>
      <point x="70" y="12" type="curve"/>
      <point x="40" y="8" type="line"/>
      <point x="40" y="-128"/>
      <point x="132" y="-212"/>
    </contour>
    <contour>
      <point x="284" y="172" type="curve" smooth="yes"/>
      <point x="165" y="172"/>
      <point x="96" y="204"/>
      <point x="96" y="258" type="curve" smooth="yes"/>
      <point x="96" y="312"/>
      <point x="165" y="344"/>
      <point x="284" y="344" type="curve" smooth="yes"/>
      <point x="400" y="344"/>
      <point x="468" y="312"/>
      <point x="468" y="257" type="curve" smooth="yes"/>
      <point x="468" y="203"/>
      <point x="400" y="172"/>
    </contour>
  </outline>
</glyph>
<glyph name="copyright" format="2">
  <advance width="860"/>
  <unicode hex="00A9"/>
  <outline>
    <contour>
      <point x="429" y="-108" type="curve" smooth="yes"/>
      <point x="657" y="-108"/>
      <point x="804" y="52"/>
      <point x="804" y="300" type="curve" smooth="yes"/>
      <point x="804" y="548"/>
      <point x="657" y="708"/>
      <point x="429" y="708" type="curve" smooth="yes"/>
      <point x="201" y="708"/>
      <point x="56" y="548"/>
      <point x="56" y="300" type="curve" smooth="yes"/>
      <point x="56" y="52"/>
      <point x="201" y="-108"/>
    </contour>
    <contour>
      <point x="436" y="48" type="curve" smooth="yes"/>
      <point x="560" y="48"/>
      <point x="642" y="132"/>
      <point x="644" y="256" type="curve"/>
      <point x="614" y="260" type="line"/>
      <point x="602" y="220"/>
      <point x="537" y="196"/>
      <point x="438" y="196" type="curve" smooth="yes"/>
      <point x="322" y="196"/>
      <point x="254" y="230"/>
      <point x="254" y="290" type="curve" smooth="yes"/>
      <point x="254" y="351"/>
      <point x="320" y="386"/>
      <point x="432" y="386" type="curve" smooth="yes"/>
      <point x="527" y="386"/>
      <point x="592" y="360"/>
      <point x="604" y="316" type="curve"/>
      <point x="636" y="318" type="line"/>
      <point x="632" y="454"/>
      <point x="552" y="536"/>
      <point x="432" y="536" type="curve" smooth="yes"/>
      <point x="303" y="536"/>
      <point x="220" y="440"/>
      <point x="220" y="292" type="curve" smooth="yes"/>
      <point x="220" y="144"/>
      <point x="305" y="48"/>
    </contour>
    <contour>
      <point x="429" y="-38" type="curve" smooth="yes"/>
      <point x="221" y="-38"/>
      <point x="100" y="86"/>
      <point x="100" y="299" type="curve" smooth="yes"/>
      <point x="100" y="512"/>
      <point x="221" y="636"/>
      <point x="429" y="636" type="curve" smooth="yes"/>
      <point x="637" y="636"/>
      <point x="760" y="512"/>
      <point x="760" y="299" type="curve" smooth="yes"/>
      <point x="760" y="86"/>
      <point x="637" y="-38"/>
    </contour>
  </outline>
</glyph>
<glyph name="ordfeminine" format="2">
  <advance width="372"/>
  <unicode hex="00AA"/>
  <outline>
    <contour>
      <point x="286" y="342" type="line"/>
      <point x="332" y="342" type="line"/>
      <point x="332" y="561" type="line" smooth="yes"/>
      <point x="332" y="647"/>
      <point x="274" y="708"/>
      <point x="191" y="708" type="curve" smooth="yes"/>
      <point x="110" y="708"/>
      <point x="50" y="650"/>
      <point x="47" y="569" type="curve"/>
      <point x="71" y="564" type="line"/>
      <point x="78" y="587"/>
      <point x="120" y="602"/>
      <point x="178" y="602" type="curve" smooth="yes"/>
      <point x="249" y="602"/>
      <point x="294" y="582"/>
      <point x="294" y="552" type="curve" smooth="yes"/>
      <point x="294" y="488" type="line"/>
      <point x="284" y="458"/>
      <point x="238" y="439"/>
      <point x="176" y="439" type="curve" smooth="yes"/>
      <point x="124" y="439"/>
      <point x="90" y="453"/>
      <point x="90" y="476" type="curve" smooth="yes"/>
      <point x="90" y="493"/>
      <point x="108" y="504"/>
      <point x="137" y="504" type="curve" smooth="yes"/>
      <point x="302" y="504" type="line"/>
      <point x="302" y="536" type="line"/>
      <point x="138" y="536" type="line" smooth="yes"/>
      <point x="71" y="536"/>
      <point x="24" y="496"/>
      <point x="24" y="440" type="curve" smooth="yes"/>
      <point x="24" y="379"/>
      <point x="77" y="336"/>
      <point x="151" y="336" type="curve" smooth="yes"/>
      <point x="227" y="336"/>
      <point x="286" y="382"/>
      <point x="294" y="448" type="curve"/>
      <point x="303" y="448" type="line"/>
    </contour>
  </outline>
</glyph>
<glyph name="logicalnot" format="2">
  <advance width="564"/>
  <unicode hex="00AC"/>
  <outline>
    <contour>
      <point x="452" y="72" type="line"/>
      <point x="496" y="72" type="line"/>
      <point x="496" y="316" type="line"/>
      <point x="56" y="316" type="line"/>
      <point x="56" y="252" type="line"/>
      <point x="475" y="252" type="line"/>
      <point x="452" y="272" type="line"/>
    </contour>
  </outline>
</glyph>
<glyph name="registered" format="2">
  <advance width="412"/>
  <unicode hex="00AE"/>
  <outline>
    <contour>
      <point x="206" y="324" type="curve" smooth="yes"/>
      <point x="314" y="324"/>
      <point x="384" y="397"/>
      <point x="384" y="511" type="curve" smooth="yes"/>
      <point x="384" y="628"/>
      <point x="314" y="704"/>
      <point x="206" y="704" type="curve" smooth="yes"/>
      <point x="98" y="704"/>
      <point x="28" y="628"/>
      <point x="28" y="511" type="curve" smooth="yes"/>
      <point x="28" y="397"/>
      <point x="98" y="324"/>
    </contour>
    <contour>
      <point x="206" y="388" type="curve" smooth="yes"/>
      <point x="116" y="388"/>
      <point x="64" y="434"/>
      <point x="64" y="513" type="curve" smooth="yes"/>
      <point x="64" y="592"/>
      <point x="116" y="638"/>
      <point x="206" y="638" type="curve" smooth="yes"/>
      <point x="296" y="638"/>
      <point x="348" y="592"/>
      <point x="348" y="513" type="curve" smooth="yes"/>
      <point x="348" y="434"/>
      <point x="296" y="388"/>
    </contour>
    <contour>
      <point x="132" y="414" type="line"/>
      <point x="160" y="414" type="line"/>
      <point x="160" y="546" type="line"/>
      <point x="232" y="546" type="line" smooth="yes"/>
      <point x="248" y="546"/>
      <point x="258" y="539"/>
      <point x="258" y="526" type="curve" smooth="yes"/>
      <point x="258" y="513"/>
      <point x="248" y="506"/>
      <point x="230" y="506" type="curve" smooth="yes"/>
      <point x="140" y="506" type="line"/>
      <point x="140" y="482" type="line"/>
      <point x="210" y="482" type="line"/>
      <point x="198" y="488" type="line"/>
      <point x="220" y="414" type="line"/>
      <point x="290" y="414" type="line"/>
      <point x="256" y="500" type="line"/>
      <point x="242" y="484" type="line"/>
      <point x="271" y="490"/>
      <point x="290" y="514"/>
      <point x="290" y="546" type="curve" smooth="yes"/>
      <point x="290" y="585"/>
      <point x="263" y="610"/>
      <point x="220" y="610" type="curve" smooth="yes"/>
      <point x="132" y="610" type="line"/>
    </contour>
  </outline>
</glyph>
<glyph name="degree" format="2">
  <advance width="412"/>
  <unicode hex="00B0"/>
  <outline>
    <contour>
      <point x="206" y="324" type="curve" smooth="yes"/>
      <point x="314" y="324"/>
      <point x="384" y="397"/>
      <point x="384" y="511" type="curve" smooth="yes"/>
      <point x="384" y="628"/>
      <point x="314" y="704"/>
      <point x="206" y="704" type="curve" smooth="yes"/>
      <point x="98" y="704"/>
      <point x="28" y="628"/>
      <point x="28" y="511" type="curve" smooth="yes"/>
      <point x="28" y="397"/>
      <point x="98" y="324"/>
    </contour>
    <contour>
      <point x="206" y="392" type="curve" smooth="yes"/>
      <point x="118" y="392"/>
      <point x="66" y="437"/>
      <point x="66" y="513" type="curve" smooth="yes"/>
      <point x="66" y="589"/>
      <point x="118" y="634"/>
      <point x="206" y="634" type="curve" smooth="yes"/>
      <point x="294" y="634"/>
      <point x="346" y="589"/>
      <point x="346" y="513" type="curve" smooth="yes"/>
      <point x="346" y="437"/>
      <point x="294" y="392"/>
    </contour>
  </outline>
</glyph>
<glyph name="plusminus" format="2">
  <advance width="564"/>
  <unicode hex="00B1"/>
  <outline>
    <contour>
      <point x="64" y="302" type="line"/>
      <point x="500" y="302" type="line"/>
      <point x="500" y="364" type="line"/>
      <point x="64" y="364" type="line"/>
    </contour>
    <contour>
      <point x="66" y="52" type="line"/>
      <point x="498" y="52" type="line"/>
      <point x="498" y="114" type="line"/>
      <point x="66" y="114" type="line"/>
    </contour>
    <contour>
      <point x="260" y="154" type="line"/>
      <point x="304" y="154" type="line"/>
      <point x="304" y="536" type="line"/>
      <point x="260" y="536" type="line"/>
    </contour>
  </outline>
</glyph>
<glyph name="twosuperior" format="2">
  <advance width="300"/>
  <unicode hex="00B2"/>
  <outline>
    <contour>
      <point x="32" y="332" type="line"/>
      <point x="268" y="332" type="line"/>
      <point x="268" y="432" type="line"/>
      <point x="92" y="432" type="line"/>
      <point x="92" y="440" type="line"/>
      <point x="216" y="468"/>
      <point x="266" y="512"/>
      <point x="266" y="588" type="curve" smooth="yes"/>
      <point x="266" y="659"/>
      <point x="222" y="704"/>
      <point x="154" y="704" type="curve" smooth="yes"/>
      <point x="76" y="704"/>
      <point x="28" y="648"/>
      <point x="28" y="548" type="curve"/>
      <point x="52" y="544" type="line"/>
      <point x="58" y="584"/>
      <point x="92" y="608"/>
      <point x="148" y="608" type="curve" smooth="yes"/>
      <point x="200" y="608"/>
      <point x="228" y="584"/>
      <point x="228" y="550" type="curve" smooth="yes"/>
      <point x="228" y="498"/>
      <point x="156" y="468"/>
      <point x="32" y="440" type="curve"/>
    </contour>
  </outline>
</glyph>
<glyph name="threesuperior" format="2">
  <advance width="312"/>
  <unicode hex="00B3"/>
  <outline>
    <contour>
      <point x="164" y="324" type="curve" smooth="yes"/>
      <point x="239" y="324"/>
      <point x="288" y="363"/>
      <point x="288" y="424" type="curve" smooth="yes"/>
      <point x="288" y="472"/>
      <point x="256" y="502"/>
      <point x="208" y="510" type="curve"/>
      <point x="208" y="518" type="line"/>
      <point x="252" y="526"/>
      <point x="276" y="556"/>
      <point x="276" y="600" type="curve" smooth="yes"/>
      <point x="276" y="663"/>
      <point x="229" y="704"/>
      <point x="157" y="704" type="curve" smooth="yes"/>
      <point x="77" y="704"/>
      <point x="28" y="654"/>
      <point x="28" y="570" type="curve"/>
      <point x="52" y="566" type="line"/>
      <point x="57" y="591"/>
      <point x="94" y="606"/>
      <point x="152" y="606" type="curve" smooth="yes"/>
      <point x="208" y="606"/>
      <point x="240" y="592"/>
      <point x="240" y="568" type="curve" smooth="yes"/>
      <point x="240" y="544"/>
      <point x="209" y="530"/>
      <point x="156" y="530" type="curve" smooth="yes"/>
      <point x="136" y="530" type="line"/>
      <point x="136" y="496" type="line"/>
      <point x="156" y="496" type="line" smooth="yes"/>
      <point x="214" y="496"/>
      <point x="248" y="482"/>
      <point x="248" y="458" type="curve" smooth="yes"/>
      <point x="248" y="434"/>
      <point x="214" y="420"/>
      <point x="156" y="420" type="curve" smooth="yes"/>
      <point x="93" y="420"/>
      <point x="54" y="438"/>
      <point x="50" y="469" type="curve"/>
      <point x="24" y="465" type="line"/>
      <point x="24" y="377"/>
      <point x="76" y="324"/>
    </contour>
  </outline>
</glyph>
<glyph name="micro" format="2">
  <advance width="532"/>
  <unicode hex="00B5"/>
  <outline>
    <contour>
      <point x="56" y="-200" type="line"/>
      <point x="104" y="-200" type="line"/>
      <point x="90" y="108" type="line"/>
      <point x="102" y="108" type="line"/>
      <point x="119" y="37"/>
      <point x="180" y="-8"/>
      <point x="260" y="-8" type="curve" smooth="yes"/>
      <point x="349" y="-8"/>
      <point x="416" y="42"/>
      <point x="432" y="120" type="curve"/>
      <point x="444" y="120" type="line"/>
      <point x="428" y="0" type="line"/>
      <point x="476" y="0" type="line"/>
      <point x="476" y="520" type="line"/>
      <point x="432" y="520" type="line"/>
      <point x="432" y="240" type="line"/>
      <point x="418" y="203"/>
      <point x="358" y="182"/>
      <point x="268" y="182" type="curve" smooth="yes"/>
      <point x="162" y="182"/>
      <point x="100" y="211"/>
      <point x="100" y="260" type="curve" smooth="yes"/>
      <point x="100" y="520" type="line"/>
      <point x="56" y="520" type="line"/>
    </contour>
  </outline>
</glyph>
<glyph name="paragraph" format="2">
  <advance width="532"/>
  <unicode hex="00B6"/>
  <outline>
    <contour>
      <point x="368" y="-200" type="line"/>
      <point x="400" y="-200" type="line"/>
      <point x="400" y="700" type="line"/>
      <point x="244" y="700" type="line" smooth="yes"/>
      <point x="117" y="700"/>
      <point x="28" y="624"/>
      <point x="28" y="516" type="curve" smooth="yes"/>
      <point x="28" y="408"/>
      <point x="117" y="332"/>
      <point x="244" y="332" type="curve" smooth="yes"/>
      <point x="388" y="332" type="line"/>
      <point x="368" y="352" type="line"/>
    </contour>
    <contour>
      <point x="440" y="-200" type="line"/>
      <point x="472" y="-200" type="line"/>
      <point x="472" y="700" type="line"/>
      <point x="440" y="700" type="line"/>
    </contour>
  </outline>
</glyph>
<glyph name="onesuperior" format="2">
  <advance width="216"/>
  <unicode hex="00B9"/>
  <outline>
    <contour>
      <point x="128" y="332" type="line"/>
      <point x="172" y="332" type="line"/>
      <point x="172" y="700" type="line"/>
      <point x="132" y="700" type="line"/>
      <point x="132" y="644"/>
      <point x="88" y="613"/>
      <point x="12" y="613" type="curve"/>
      <point x="12" y="497" type="line"/>
      <point x="76" y="497"/>
      <point x="112" y="524"/>
      <point x="120" y="564" type="curve"/>
      <point x="128" y="564" type="line"/>
    </contour>
  </outline>
</glyph>
<glyph name="ordmasculine" format="2">
  <advance width="412"/>
  <unicode hex="00BA"/>
  <outline>
    <contour>
      <point x="206" y="324" type="curve" smooth="yes"/>
      <point x="312" y="324"/>
      <point x="380" y="397"/>
      <point x="380" y="511" type="curve" smooth="yes"/>
      <point x="380" y="628"/>
      <point x="312" y="704"/>
      <point x="206" y="704" type="curve" smooth="yes"/>
      <point x="100" y="704"/>
      <point x="32" y="628"/>
      <point x="32" y="511" type="curve" smooth="yes"/>
      <point x="32" y="397"/>
      <point x="100" y="324"/>
    </contour>
    <contour>
      <point x="206" y="436" type="curve" smooth="yes"/>
      <point x="116" y="436"/>
      <point x="64" y="464"/>
      <point x="64" y="513" type="curve" smooth="yes"/>
      <point x="64" y="562"/>
      <point x="116" y="590"/>
      <point x="206" y="590" type="curve" smooth="yes"/>
      <point x="296" y="590"/>
      <point x="348" y="562"/>
      <point x="348" y="513" type="curve" smooth="yes"/>
      <point x="348" y="464"/>
      <point x="296" y="436"/>
    </contour>
  </outline>
</glyph>
<glyph name="questiondown" format="2">
  <advance width="486"/>
  <unicode hex="00BF"/>
  <outline>
    <contour>
      <point x="224" y="-212" type="curve" smooth="yes"/>
      <point x="369" y="-212"/>
      <point x="460" y="-108"/>
      <point x="460" y="60" type="curve"/>
      <point x="428" y="64" type="line"/>
      <point x="412" y="-8"/>
      <point x="343" y="-50"/>
      <point x="240" y="-50" type="curve" smooth="yes"/>
      <point x="143" y="-50"/>
      <point x="86" y="-12"/>
      <point x="86" y="52" type="curve" smooth="yes"/>
      <point x="86" y="168"/>
      <point x="268" y="164"/>
      <point x="268" y="316" type="curve"/>
      <point x="232" y="316" type="line"/>
      <point x="232" y="180"/>
      <point x="12" y="196"/>
      <point x="12" y="-8" type="curve" smooth="yes"/>
      <point x="12" y="-132"/>
      <point x="93" y="-212"/>
    </contour>
    <component base="period" xOffset="133" yOffset="396"/>
  </outline>
</glyph>
<glyph name="AE" format="2">
  <advance width="894"/>
  <unicode hex="00C6"/>
  <outline>
    <contour>
      <point x="0" y="0" type="line"/>
      <point x="54" y="0" type="line"/>
      <point x="288" y="524" type="line"/>
      <point x="470" y="524" type="line"/>
      <point x="470" y="700" type="line"/>
      <point x="316" y="700" type="line"/>
    </contour>
    <contour>
      <point x="96" y="132" type="line"/>
      <point x="470" y="132" type="line"/>
      <point x="470" y="300" type="line"/>
      <point x="176" y="300" type="line"/>
    </contour>
    <contour>
      <point x="470" y="0" type="line"/>
      <point x="846" y="0" type="line"/>
      <point x="846" y="172" type="line"/>
      <point x="470" y="172" type="line"/>
    </contour>
    <contour>
      <point x="450" y="0" type="line"/>
      <point x="490" y="0" type="line"/>
      <point x="490" y="700" type="line"/>
      <point x="450" y="700" type="line"/>
    </contour>
    <contour>
      <point x="470" y="324" type="line"/>
      <point x="812" y="324" type="line"/>
      <point x="812" y="372" type="line"/>
      <point x="470" y="372" type="line"/>
    </contour>
    <contour>
      <point x="470" y="524" type="line"/>
      <point x="850" y="524" type="line"/>
      <point x="850" y="700" type="line"/>
      <point x="470" y="700" type="line"/>
    </contour>
  </outline>
</glyph>
<glyph name="Idieresis" format="2">
  <advance width="174"/>
  <unicode hex="00CF"/>
  <outline>
    <contour>
      <point x="16" y="762" type="curve" smooth="yes"/>
      <point x="46" y="762"/>
      <point x="68" y="783"/>
      <point x="68" y="812" type="curve" smooth="yes"/>
      <point x="68" y="841"/>
      <point x="46" y="862"/>
      <point x="16" y="862" type="curve" smooth="yes"/>
      <point x="-14" y="862"/>
      <point x="-36" y="841"/>
      <point x="-36" y="812" type="curve" smooth="yes"/>
      <point x="-36" y="783"/>
      <point x="-14" y="762"/>
    </contour>
    <contour>
      <point x="158" y="762" type="curve" smooth="yes"/>
      <point x="188" y="762"/>
      <point x="210" y="783"/>
      <point x="210" y="812" type="curve" smooth="yes"/>
      <point x="210" y="841"/>
      <point x="188" y="862"/>
      <point x="158" y="862" type="curve" smooth="yes"/>
      <point x="128" y="862"/>
      <point x="106" y="841"/>
      <point x="106" y="812" type="curve" smooth="yes"/>
      <point x="106" y="783"/>
      <point x="128" y="762"/>
    </contour>
    <component base="I" xOffset="2"/>
  </outline>
</glyph>
<glyph name="Eth" format="2">
  <advance width="662"/>
  <unicode hex="00D0"/>
  <outline>
    <contour>
      <point x="24" y="324" type="line"/>
      <point x="398" y="324" type="line"/>
      <point x="398" y="372" type="line"/>
      <point x="24" y="372" type="line"/>
    </contour>
    <contour>
      <point x="100" y="0" type="line"/>
      <point x="334" y="0" type="line" smooth="yes"/>
      <point x="518" y="0"/>
      <point x="626" y="132"/>
      <point x="626" y="352" type="curve" smooth="yes"/>
      <point x="626" y="572"/>
      <point x="518" y="700"/>
      <point x="338" y="700" type="curve" smooth="yes"/>
      <point x="100" y="700" type="line"/>
      <point x="100" y="524" type="line"/>
      <point x="350" y="524" type="line" smooth="yes"/>
      <point x="502" y="524"/>
      <point x="584" y="462"/>
      <point x="584" y="348" type="curve" smooth="yes"/>
      <point x="584" y="236"/>
      <point x="502" y="172"/>
      <point x="346" y="172" type="curve" smooth="yes"/>
      <point x="100" y="172" type="line"/>
    </contour>
    <contour>
      <point x="70" y="0" type="line"/>
      <point x="120" y="0" type="line"/>
      <point x="120" y="700" type="line"/>
      <point x="70" y="700" type="line"/>
    </contour>
  </outline>
</glyph>
<glyph name="multiply" format="2">
  <advance width="564"/>
  <unicode hex="00D7"/>
  <outline>
    <contour>
      <point x="118" y="60" type="line"/>
      <point x="282" y="236" type="line"/>
      <point x="446" y="60" type="line"/>
      <point x="488" y="100" type="line"/>
      <point x="322" y="276" type="line"/>
      <point x="492" y="448" type="line"/>
      <point x="446" y="492" type="line"/>
      <point x="282" y="316" type="line"/>
      <point x="118" y="492" type="line"/>
      <point x="72" y="448" type="line"/>
      <point x="242" y="276" type="line"/>
      <point x="76" y="100" type="line"/>
    </contour>
  </outline>
</glyph>
<glyph name="Oslash" format="2">
  <advance width="728"/>
  <unicode hex="00D8"/>
  <outline>
    <contour>
      <point x="47" y="0" type="line"/>
      <point x="102" y="0" type="line"/>
      <point x="698" y="706" type="line"/>
      <point x="644" y="706" type="line"/>
    </contour>
    <component base="O"/>
  </outline>
</glyph>
<glyph name="Thorn" format="2">
  <advance width="608"/>
  <unicode hex="00DE"/>
  <outline>
    <contour>
      <point x="90" y="108" type="line"/>
      <point x="356" y="108" type="line" smooth="yes"/>
      <point x="504" y="108"/>
      <point x="596" y="202"/>
      <point x="596" y="352" type="curve" smooth="yes"/>
      <point x="596" y="504"/>
      <point x="504" y="598"/>
      <point x="358" y="598" type="curve" smooth="yes"/>
      <point x="90" y="598" type="line"/>
      <point x="90" y="408" type="line"/>
      <point x="356" y="408" type="line" smooth="yes"/>
      <point x="457" y="408"/>
      <point x="516" y="362"/>
      <point x="516" y="282" type="curve" smooth="yes"/>
      <point x="516" y="202"/>
      <point x="459" y="156"/>
      <point x="360" y="156" type="curve" smooth="yes"/>
      <point x="90" y="156" type="line"/>
    </contour>
    <contour>
      <point x="60" y="0" type="line"/>
      <point x="110" y="0" type="line"/>
      <point x="110" y="700" type="line"/>
      <point x="60" y="700" type="line"/>
    </contour>
  </outline>
</glyph>
<glyph name="germandbls" format="2">
  <advance width="558"/>
  <unicode hex="00DF"/>
  <outline>
    <contour>
      <point x="56" y="0" type="line"/>
      <point x="100" y="0" type="line"/>
      <point x="100" y="474" type="line" smooth="yes"/>
      <point x="100" y="551"/>
      <point x="162" y="596"/>
      <point x="268" y="596" type="curve" smooth="yes"/>
      <point x="364" y="596"/>
      <point x="420" y="561"/>
      <point x="420" y="500" type="curve" smooth="yes"/>
      <point x="420" y="438"/>
      <point x="361" y="402"/>
      <point x="260" y="402" type="curve" smooth="yes"/>
      <point x="226" y="402" type="line"/>
      <point x="226" y="358" type="line"/>
      <point x="268" y="358" type="line" smooth="yes"/>
      <point x="387" y="358"/>
      <point x="456" y="318"/>
      <point x="456" y="250" type="curve" smooth="yes"/>
      <point x="456" y="170"/>
      <point x="363" y="138"/>
      <point x="204" y="162" type="curve"/>
      <point x="196" y="-2" type="line"/>
      <point x="396" y="-30"/>
      <point x="512" y="50"/>
      <point x="512" y="192" type="curve" smooth="yes"/>
      <point x="512" y="292"/>
      <point x="452" y="360"/>
      <point x="348" y="376" type="curve"/>
      <point x="348" y="388" type="line"/>
      <point x="429" y="406"/>
      <point x="476" y="470"/>
      <point x="476" y="562" type="curve" smooth="yes"/>
      <point x="476" y="681"/>
      <point x="396" y="758"/>
      <point x="272" y="758" type="curve" smooth="yes"/>
      <point x="141" y="758"/>
      <point x="56" y="674"/>
      <point x="56" y="544" type="curve" smooth="yes"/>
    </contour>
  </outline>
</glyph>
<glyph name="ae" format="2">
  <advance width="840"/>
  <unicode hex="00E6"/>
  <outline>
    <contour>
      <point x="196" y="-8" type="curve" smooth="yes"/>
      <point x="295" y="-8"/>
      <point x="371" y="47"/>
      <point x="390" y="132" type="curve"/>
      <point x="402" y="132" type="line"/>
      <point x="435" y="44"/>
      <point x="507" y="-8"/>
      <point x="606" y="-8" type="curve" smooth="yes"/>
      <point x="723" y="-8"/>
      <point x="796" y="64"/>
      <point x="804" y="188" type="curve"/>
      <point x="776" y="192" type="line"/>
      <point x="756" y="164"/>
      <point x="692" y="146"/>
      <point x="612" y="146" type="curve" smooth="yes"/>
      <point x="488" y="146"/>
      <point x="416" y="189"/>
      <point x="416" y="262" type="curve" smooth="yes"/>
      <point x="416" y="333"/>
      <point x="481" y="374"/>
      <point x="592" y="374" type="curve" smooth="yes"/>
      <point x="698" y="374"/>
      <point x="758" y="334"/>
      <point x="762" y="274" type="curve"/>
      <point x="410" y="274" type="line"/>
      <point x="410" y="238" type="line"/>
      <point x="796" y="238" type="line"/>
      <point x="808" y="414"/>
      <point x="733" y="528"/>
      <point x="594" y="528" type="curve" smooth="yes"/>
      <point x="502" y="528"/>
      <point x="434" y="472"/>
      <point x="410" y="384" type="curve"/>
      <point x="398" y="384" type="line"/>
      <point x="383" y="469"/>
      <point x="318" y="528"/>
      <point x="232" y="528" type="curve" smooth="yes"/>
      <point x="128" y="528"/>
      <point x="54" y="448"/>
      <point x="50" y="328" type="curve"/>
      <point x="78" y="322" type="line"/>
      <point x="93" y="356"/>
      <point x="149" y="376"/>
      <point x="230" y="376" type="curve" smooth="yes"/>
      <point x="325" y="376"/>
      <point x="380" y="347"/>
      <point x="380" y="296" type="curve" smooth="yes"/>
      <point x="380" y="204" type="line"/>
      <point x="370" y="164"/>
      <point x="312" y="140"/>
      <point x="224" y="140" type="curve" smooth="yes"/>
      <point x="140" y="140"/>
      <point x="96" y="162"/>
      <point x="96" y="196" type="curve" smooth="yes"/>
      <point x="96" y="223"/>
      <point x="125" y="238"/>
      <point x="176" y="238" type="curve" smooth="yes"/>
      <point x="391" y="238" type="line"/>
      <point x="391" y="274" type="line"/>
      <point x="186" y="274" type="line" smooth="yes"/>
      <point x="84" y="274"/>
      <point x="20" y="220"/>
      <point x="20" y="136" type="curve" smooth="yes"/>
      <point x="20" y="48"/>
      <point x="89" y="-8"/>
    </contour>
  </outline>
</glyph>
<glyph name="igrave" format="2">
  <advance width="156"/>
  <unicode hex="00EC"/>
  <outline>
    <contour>
      <point x="148" y="598" type="line"/>
      <point x="164" y="620" type="line"/>
      <point x="18" y="742" type="line"/>
      <point x="-8" y="704" type="line"/>
    </contour>
    <component base="idotless" xOffset="8"/>
  </outline>
</glyph>
<glyph name="iacute" format="2">
  <advance width="156"/>
  <unicode hex="00ED"/>
  <outline>
    <contour>
      <point x="12" y="596" type="line"/>
      <point x="172" y="704" type="line"/>
      <point x="146" y="740" type="line"/>
      <point x="-4" y="618" type="line"/>
    </contour>
    <component base="idotless"/>
  </outline>
</glyph>
<glyph name="idieresis" format="2">
  <advance width="172"/>
  <unicode hex="00EF"/>
  <outline>
    <contour>
      <point x="10" y="624" type="curve" smooth="yes"/>
      <point x="44" y="624"/>
      <point x="68" y="647"/>
      <point x="68" y="680" type="curve" smooth="yes"/>
      <point x="68" y="713"/>
      <point x="44" y="736"/>
      <point x="10" y="736" type="curve" smooth="yes"/>
      <point x="-24" y="736"/>
      <point x="-48" y="713"/>
      <point x="-48" y="680" type="curve" smooth="yes"/>
      <point x="-48" y="647"/>
      <point x="-24" y="624"/>
    </contour>
    <contour>
      <point x="162" y="624" type="curve" smooth="yes"/>
      <point x="196" y="624"/>
      <point x="220" y="647"/>
      <point x="220" y="680" type="curve" smooth="yes"/>
      <point x="220" y="713"/>
      <point x="196" y="736"/>
      <point x="162" y="736" type="curve" smooth="yes"/>
      <point x="128" y="736"/>
      <point x="104" y="713"/>
      <point x="104" y="680" type="curve" smooth="yes"/>
      <point x="104" y="647"/>
      <point x="128" y="624"/>
    </contour>
    <component base="idotless" xOffset="12"/>
  </outline>
</glyph>
<glyph name="eth" format="2">
  <advance width="592"/>
  <unicode hex="00F0"/>
  <outline>
    <contour>
      <point x="276" y="-8" type="curve" smooth="yes"/>
      <point x="444" y="-8"/>
      <point x="548" y="128"/>
      <point x="548" y="336" type="curve" smooth="yes"/>
      <point x="548" y="408"/>
      <point x="532" y="482"/>
      <point x="500" y="546" type="curve"/>
      <point x="500" y="558" type="line"/>
      <point x="548" y="564" type="line"/>
      <point x="524" y="732" type="line"/>
      <point x="367" y="704" type="line"/>
      <point x="336" y="726"/>
      <point x="302" y="745"/>
      <point x="264" y="760" type="curve"/>
      <point x="236" y="708" type="line"/>
      <point x="247" y="705"/>
      <point x="258" y="701"/>
      <point x="268" y="696" type="curve"/>
      <point x="268" y="684" type="line"/>
      <point x="212" y="676" type="line"/>
      <point x="236" y="512" type="line"/>
      <point x="453" y="547" type="line"/>
      <point x="497" y="483"/>
      <point x="512" y="424"/>
      <point x="512" y="368" type="curve" smooth="yes"/>
      <point x="512" y="237"/>
      <point x="429" y="160"/>
      <point x="288" y="160" type="curve" smooth="yes"/>
      <point x="171" y="160"/>
      <point x="102" y="214"/>
      <point x="102" y="306" type="curve" smooth="yes"/>
      <point x="102" y="401"/>
      <point x="172" y="456"/>
      <point x="292" y="456" type="curve" smooth="yes"/>
      <point x="400" y="456"/>
      <point x="485" y="404"/>
      <point x="520" y="316" type="curve"/>
      <point x="528" y="368" type="line"/>
      <point x="488" y="444"/>
      <point x="404" y="492"/>
      <point x="296" y="492" type="curve" smooth="yes"/>
      <point x="138" y="492"/>
      <point x="36" y="395"/>
      <point x="36" y="244" type="curve" smooth="yes"/>
      <point x="36" y="91"/>
      <point x="130" y="-8"/>
    </contour>
  </outline>
</glyph>
<glyph name="oslash" format="2">
  <advance width="560"/>
  <unicode hex="00F8"/>
  <outline>
    <contour>
      <point x="64" y="-8" type="line"/>
      <point x="108" y="-8" type="line"/>
      <point x="522" y="528" type="line"/>
      <point x="476" y="528" type="line"/>
    </contour>
    <component base="o"/>
  </outline>
</glyph>
<glyph name="thorn" format="2">
  <advance width="564"/>
  <unicode hex="00FE"/>
  <outline>
    <contour>
      <point x="60" y="-200" type="line"/>
      <point x="108" y="-200" type="line"/>
      <point x="92" y="120" type="line"/>
      <point x="104" y="120" type="line"/>
      <point x="130" y="42"/>
      <point x="207" y="-8"/>
      <point x="300" y="-8" type="curve" smooth="yes"/>
      <point x="439" y="-8"/>
      <point x="528" y="98"/>
      <point x="528" y="264" type="curve" smooth="yes"/>
      <point x="528" y="425"/>
      <point x="442" y="528"/>
      <point x="308" y="528" type="curve" smooth="yes"/>
      <point x="202" y="528"/>
      <point x="124" y="467"/>
      <point x="108" y="372" type="curve"/>
      <point x="96" y="372" type="line"/>
      <point x="108" y="750" type="line"/>
      <point x="60" y="750" type="line"/>
    </contour>
    <contour>
      <point x="292" y="150" type="curve" smooth="yes"/>
      <point x="215" y="150"/>
      <point x="146" y="165"/>
      <point x="104" y="192" type="curve"/>
      <point x="104" y="284" type="line"/>
      <point x="120" y="336"/>
      <point x="192" y="366"/>
      <point x="300" y="366" type="curve" smooth="yes"/>
      <point x="422" y="366"/>
      <point x="494" y="325"/>
      <point x="494" y="256" type="curve" smooth="yes"/>
      <point x="494" y="189"/>
      <point x="420" y="150"/>
    </contour>
  </outline>
</glyph>
<glyph name="Aogonek" format="2">
  <advance width="628"/>
  <unicode hex="0104"/>
  <outline>
    <contour>
      <point x="626" y="-204" type="curve"/>
      <point x="626" y="-152" type="line"/>
      <point x="550" y="-172"/>
      <point x="506" y="-157"/>
      <point x="506" y="-112" type="curve" smooth="yes"/>
      <point x="506" y="-69"/>
      <point x="550" y="-28"/>
      <point x="626" y="0" type="curve"/>
      <point x="564" y="0" type="line"/>
      <point x="564" y="-12" type="line"/>
      <point x="504" y="-40"/>
      <point x="460" y="-84"/>
      <point x="460" y="-136" type="curve" smooth="yes"/>
      <point x="460" y="-200"/>
      <point x="526" y="-228"/>
    </contour>
    <component base="A"/>
  </outline>
</glyph>
<glyph name="aogonek" format="2">
  <advance width="480"/>
  <unicode hex="0105"/>
  <outline>
    <contour>
      <point x="432" y="-204" type="curve"/>
      <point x="432" y="-152" type="line"/>
      <point x="356" y="-172"/>
      <point x="312" y="-157"/>
      <point x="312" y="-112" type="curve" smooth="yes"/>
      <point x="312" y="-69"/>
      <point x="356" y="-28"/>
      <point x="432" y="0" type="curve"/>
      <point x="388" y="0" type="line"/>
      <point x="320" y="-28"/>
      <point x="268" y="-76"/>
      <point x="268" y="-134" type="curve" smooth="yes"/>
      <point x="268" y="-198"/>
      <point x="332" y="-228"/>
    </contour>
    <component base="a"/>
  </outline>
</glyph>
<glyph name="dcroat" format="2">
  <advance width="592"/>
  <unicode hex="0111"/>
  <outline>
    <contour>
      <point x="276" y="-8" type="curve" smooth="yes"/>
      <point x="380" y="-8"/>
      <point x="458" y="40"/>
      <point x="476" y="120" type="curve"/>
      <point x="488" y="120" type="line"/>
      <point x="480" y="0" type="line"/>
      <point x="524" y="0" type="line"/>
      <point x="524" y="750" type="line"/>
      <point x="476" y="750" type="line"/>
      <point x="480" y="240" type="line"/>
      <point x="465" y="187"/>
      <point x="402" y="156"/>
      <point x="308" y="156" type="curve" smooth="yes"/>
      <point x="184" y="156"/>
      <point x="112" y="211"/>
      <point x="112" y="304" type="curve" smooth="yes"/>
      <point x="112" y="397"/>
      <point x="181" y="452"/>
      <point x="300" y="452" type="curve" smooth="yes"/>
      <point x="401" y="452"/>
      <point x="475" y="411"/>
      <point x="500" y="340" type="curve"/>
      <point x="500" y="392" type="line"/>
      <point x="476" y="453"/>
      <point x="396" y="492"/>
      <point x="296" y="492" type="curve" smooth="yes"/>
      <point x="138" y="492"/>
      <point x="36" y="393"/>
      <point x="36" y="240" type="curve" smooth="yes"/>
      <point x="36" y="89"/>
      <point x="130" y="-8"/>
    </contour>
    <contour>
      <point x="232" y="550" type="line"/>
      <point x="580" y="550" type="line"/>
      <point x="580" y="714" type="line"/>
      <point x="232" y="714" type="line"/>
    </contour>
  </outline>
</glyph>
<glyph name="eogonek" format="2">
  <advance width="528"/>
  <unicode hex="0119"/>
  <outline>
    <contour>
      <point x="412" y="-204" type="curve"/>
      <point x="412" y="-152" type="line"/>
      <point x="336" y="-172"/>
      <point x="284" y="-153"/>
      <point x="284" y="-108" type="curve" smooth="yes"/>
      <point x="284" y="16"/>
      <point x="488" y="4"/>
      <point x="492" y="196" type="curve"/>
      <point x="462" y="200" type="line"/>
      <point x="442" y="165"/>
      <point x="377" y="144"/>
      <point x="284" y="144" type="curve" smooth="yes"/>
      <point x="149" y="144"/>
      <point x="70" y="187"/>
      <point x="70" y="260" type="curve" smooth="yes"/>
      <point x="70" y="331"/>
      <point x="140" y="372"/>
      <point x="260" y="372" type="curve" smooth="yes"/>
      <point x="372" y="372"/>
      <point x="444" y="334"/>
      <point x="448" y="274" type="curve"/>
      <point x="50" y="274" type="line"/>
      <point x="50" y="238" type="line"/>
      <point x="484" y="238" type="line"/>
      <point x="492" y="414"/>
      <point x="410" y="528"/>
      <point x="266" y="528" type="curve" smooth="yes"/>
      <point x="126" y="528"/>
      <point x="36" y="423"/>
      <point x="36" y="260" type="curve" smooth="yes"/>
      <point x="36" y="38"/>
      <point x="205" y="-16"/>
      <point x="305" y="-4" type="curve"/>
      <point x="305" y="-14" type="line"/>
      <point x="265" y="-46"/>
      <point x="240" y="-84"/>
      <point x="240" y="-128" type="curve" smooth="yes"/>
      <point x="240" y="-200"/>
      <point x="312" y="-228"/>
    </contour>
  </outline>
</glyph>
<glyph name="Hbar" format="2">
  <advance width="660"/>
  <unicode hex="0126"/>
  <outline>
    <contour>
      <point x="60" y="0" type="line"/>
      <point x="110" y="0" type="line"/>
      <point x="110" y="700" type="line"/>
      <point x="60" y="700" type="line"/>
    </contour>
    <contour>
      <point x="550" y="0" type="line"/>
      <point x="600" y="0" type="line"/>
      <point x="600" y="700" type="line"/>
      <point x="550" y="700" type="line"/>
    </contour>
    <contour>
      <point x="90" y="292" type="line"/>
      <point x="570" y="292" type="line"/>
      <point x="570" y="340" type="line"/>
      <point x="90" y="340" type="line"/>
    </contour>
    <contour>
      <point x="12" y="472" type="line"/>
      <point x="648" y="472" type="line"/>
      <point x="648" y="664" type="line"/>
      <point x="12" y="664" type="line"/>
    </contour>
  </outline>
</glyph>
<glyph name="hbar" format="2">
  <advance width="544"/>
  <unicode hex="0127"/>
  <outline>
    <contour>
      <point x="68" y="0" type="line"/>
      <point x="112" y="0" type="line"/>
      <point x="112" y="262" type="line"/>
      <point x="126" y="304"/>
      <point x="189" y="328"/>
      <point x="284" y="328" type="curve" smooth="yes"/>
      <point x="390" y="328"/>
      <point x="452" y="298"/>
      <point x="452" y="246" type="curve" smooth="yes"/>
      <point x="452" y="0" type="line"/>
      <point x="496" y="0" type="line"/>
      <point x="496" y="292" type="line" smooth="yes"/>
      <point x="496" y="412"/>
      <point x="420" y="492"/>
      <point x="300" y="492" type="curve" smooth="yes"/>
      <point x="200" y="492"/>
      <point x="124" y="436"/>
      <point x="112" y="340" type="curve"/>
      <point x="100" y="340" type="line"/>
      <point x="120" y="750" type="line"/>
      <point x="68" y="750" type="line"/>
    </contour>
    <contour>
      <point x="12" y="554" type="line"/>
      <point x="336" y="554" type="line"/>
      <point x="336" y="714" type="line"/>
      <point x="12" y="714" type="line"/>
    </contour>
  </outline>
</glyph>
<glyph name="Iogonek" format="2">
  <advance width="170"/>
  <unicode hex="012E"/>
  <outline>
    <contour>
      <point x="110" y="-204" type="curve"/>
      <point x="110" y="-152" type="line"/>
      <point x="34" y="-172"/>
      <point x="-10" y="-157"/>
      <point x="-10" y="-112" type="curve" smooth="yes"/>
      <point x="-10" y="-69"/>
      <point x="34" y="-28"/>
      <point x="110" y="0" type="curve"/>
      <point x="60" y="0" type="line"/>
      <point x="-8" y="-26"/>
      <point x="-54" y="-76"/>
      <point x="-54" y="-132" type="curve" smooth="yes"/>
      <point x="-54" y="-200"/>
      <point x="10" y="-228"/>
    </contour>
    <component base="I"/>
  </outline>
</glyph>
<glyph name="iogonek" format="2">
  <advance width="152"/>
  <unicode hex="012F"/>
  <outline>
    <contour>
      <point x="112" y="-204" type="curve"/>
      <point x="112" y="-160" type="line"/>
      <point x="42" y="-178"/>
      <point x="-4" y="-160"/>
      <point x="-4" y="-112" type="curve" smooth="yes"/>
      <point x="-4" y="-68"/>
      <point x="36" y="-28"/>
      <point x="104" y="0" type="curve"/>
      <point x="60" y="0" type="line"/>
      <point x="-4" y="-32"/>
      <point x="-48" y="-80"/>
      <point x="-48" y="-132" type="curve" smooth="yes"/>
      <point x="-48" y="-196"/>
      <point x="16" y="-228"/>
    </contour>
    <component base="idotless" xOffset="4"/>
    <component base="dotaccentcomb" xOffset="-122"/>
  </outline>
</glyph>
<glyph name="idotless" format="2">
  <advance width="156"/>
  <unicode hex="0131"/>
  <anchor x="78" y="0" name="bottom"/>
  <anchor x="100" y="0" name="ogonek"/>
  <anchor x="78" y="520" name="top"/>
  <outline>
    <contour>
      <point x="56" y="0" type="line"/>
      <point x="100" y="0" type="line"/>
      <point x="100" y="520" type="line"/>
      <point x="56" y="520" type="line"/>
    </contour>
  </outline>
</glyph>
<glyph name="Lslash" format="2">
  <advance width="548"/>
  <unicode hex="0141"/>
  <outline>
    <contour>
      <point x="32" y="300" type="line"/>
      <point x="348" y="392" type="line"/>
      <point x="340" y="576" type="line"/>
      <point x="24" y="484" type="line"/>
    </contour>
    <contour>
      <point x="118" y="0" type="line"/>
      <point x="538" y="0" type="line"/>
      <point x="538" y="172" type="line"/>
      <point x="118" y="172" type="line"/>
    </contour>
    <contour>
      <point x="88" y="0" type="line"/>
      <point x="138" y="0" type="line"/>
      <point x="138" y="700" type="line"/>
      <point x="88" y="700" type="line"/>
    </contour>
  </outline>
</glyph>
<glyph name="lslash" format="2">
  <advance width="240"/>
  <unicode hex="0142"/>
  <outline>
    <contour>
      <point x="20" y="224" type="line"/>
      <point x="228" y="304" type="line"/>
      <point x="220" y="520" type="line"/>
      <point x="12" y="440" type="line"/>
    </contour>
    <component base="l" xOffset="36"/>
  </outline>
</glyph>
<glyph name="OE" format="2">
  <advance width="884"/>
  <unicode hex="0152"/>
  <outline>
    <contour>
      <point x="348" y="0" type="curve" smooth="yes"/>
      <point x="432" y="0" type="line"/>
      <point x="432" y="174" type="line"/>
      <point x="408" y="170"/>
      <point x="378" y="168"/>
      <point x="350" y="168" type="curve" smooth="yes"/>
      <point x="178" y="168"/>
      <point x="78" y="234"/>
      <point x="78" y="348" type="curve" smooth="yes"/>
      <point x="78" y="462"/>
      <point x="178" y="528"/>
      <point x="350" y="528" type="curve" smooth="yes"/>
      <point x="378" y="528"/>
      <point x="408" y="526"/>
      <point x="432" y="522" type="curve"/>
      <point x="432" y="700" type="line"/>
      <point x="348" y="700" type="line" smooth="yes"/>
      <point x="151" y="700"/>
      <point x="36" y="568"/>
      <point x="36" y="350" type="curve" smooth="yes"/>
      <point x="36" y="132"/>
      <point x="151" y="0"/>
    </contour>
    <contour>
      <point x="462" y="0" type="line"/>
      <point x="836" y="0" type="line"/>
      <point x="836" y="172" type="line"/>
      <point x="462" y="172" type="line"/>
    </contour>
    <contour>
      <point x="432" y="0" type="line"/>
      <point x="482" y="0" type="line"/>
      <point x="482" y="700" type="line"/>
      <point x="432" y="700" type="line"/>
    </contour>
    <contour>
      <point x="462" y="324" type="line"/>
      <point x="796" y="324" type="line"/>
      <point x="796" y="372" type="line"/>
      <point x="462" y="372" type="line"/>
    </contour>
    <contour>
      <point x="462" y="524" type="line"/>
      <point x="840" y="524" type="line"/>
      <point x="840" y="700" type="line"/>
      <point x="462" y="700" type="line"/>
    </contour>
  </outline>
</glyph>
<glyph name="oe" format="2">
  <advance width="924"/>
  <unicode hex="0153"/>
  <outline>
    <contour>
      <point x="260" y="-8" type="curve" smooth="yes"/>
      <point x="355" y="-8"/>
      <point x="430" y="44"/>
      <point x="462" y="132" type="curve"/>
      <point x="474" y="132" type="line"/>
      <point x="507" y="44"/>
      <point x="585" y="-8"/>
      <point x="684" y="-8" type="curve" smooth="yes"/>
      <point x="801" y="-8"/>
      <point x="880" y="64"/>
      <point x="888" y="188" type="curve"/>
      <point x="860" y="192" type="line"/>
      <point x="838" y="160"/>
      <point x="778" y="142"/>
      <point x="696" y="142" type="curve" smooth="yes"/>
      <point x="568" y="142"/>
      <point x="494" y="186"/>
      <point x="494" y="262" type="curve" smooth="yes"/>
      <point x="494" y="333"/>
      <point x="560" y="374"/>
      <point x="672" y="374" type="curve" smooth="yes"/>
      <point x="774" y="374"/>
      <point x="838" y="338"/>
      <point x="846" y="276" type="curve"/>
      <point x="472" y="276" type="line"/>
      <point x="472" y="238" type="line"/>
      <point x="880" y="238" type="line"/>
      <point x="892" y="414"/>
      <point x="808" y="528"/>
      <point x="672" y="528" type="curve" smooth="yes"/>
      <point x="579" y="528"/>
      <point x="506" y="476"/>
      <point x="474" y="388" type="curve"/>
      <point x="462" y="388" type="line"/>
      <point x="434" y="476"/>
      <point x="363" y="528"/>
      <point x="264" y="528" type="curve" smooth="yes"/>
      <point x="125" y="528"/>
      <point x="36" y="423"/>
      <point x="36" y="260" type="curve" smooth="yes"/>
      <point x="36" y="100"/>
      <point x="121" y="-8"/>
    </contour>
    <contour>
      <point x="265" y="146" type="curve" smooth="yes"/>
      <point x="142" y="146"/>
      <point x="70" y="188"/>
      <point x="70" y="259" type="curve" smooth="yes"/>
      <point x="70" y="330"/>
      <point x="142" y="372"/>
      <point x="265" y="372" type="curve" smooth="yes"/>
      <point x="388" y="372"/>
      <point x="460" y="330"/>
      <point x="460" y="259" type="curve" smooth="yes"/>
      <point x="460" y="188"/>
      <point x="388" y="146"/>
    </contour>
  </outline>
</glyph>
<glyph name="Tcedilla" format="2">
  <advance width="584"/>
  <unicode hex="0162"/>
  <outline>
    <contour>
      <point x="225" y="-206" type="line"/>
      <point x="337" y="-226"/>
      <point x="409" y="-200"/>
      <point x="409" y="-136" type="curve" smooth="yes"/>
      <point x="409" y="-81"/>
      <point x="362" y="-57"/>
      <point x="287" y="-76" type="curve"/>
      <point x="317" y="0" type="line"/>
      <point x="277" y="0" type="line"/>
      <point x="253" y="-104" type="line"/>
      <point x="265" y="-112" type="line"/>
      <point x="341" y="-92"/>
      <point x="381" y="-106"/>
      <point x="381" y="-134" type="curve" smooth="yes"/>
      <point x="381" y="-167"/>
      <point x="325" y="-184"/>
      <point x="225" y="-164" type="curve"/>
    </contour>
    <component base="T"/>
  </outline>
</glyph>
<glyph name="Uogonek" format="2">
  <advance width="644"/>
  <unicode hex="0172"/>
  <outline>
    <contour>
      <point x="448" y="-204" type="curve"/>
      <point x="448" y="-152" type="line"/>
      <point x="372" y="-172"/>
      <point x="328" y="-158"/>
      <point x="328" y="-115" type="curve" smooth="yes"/>
      <point x="328" y="-71"/>
      <point x="376" y="-20"/>
      <point x="464" y="28" type="curve" smooth="yes"/>
      <point x="544" y="72"/>
      <point x="592" y="161"/>
      <point x="592" y="272" type="curve" smooth="yes"/>
      <point x="592" y="700" type="line"/>
      <point x="542" y="700" type="line"/>
      <point x="542" y="344" type="line" smooth="yes"/>
      <point x="542" y="243"/>
      <point x="461" y="184"/>
      <point x="322" y="184" type="curve" smooth="yes"/>
      <point x="183" y="184"/>
      <point x="102" y="243"/>
      <point x="102" y="344" type="curve" smooth="yes"/>
      <point x="102" y="700" type="line"/>
      <point x="52" y="700" type="line"/>
      <point x="52" y="272" type="line" smooth="yes"/>
      <point x="52" y="102"/>
      <point x="158" y="-4"/>
      <point x="322" y="-4" type="curve" smooth="yes"/>
      <point x="338" y="-4"/>
      <point x="356" y="-3"/>
      <point x="372" y="0" type="curve"/>
      <point x="372" y="-10" type="line"/>
      <point x="324" y="-42"/>
      <point x="284" y="-86"/>
      <point x="284" y="-134" type="curve" smooth="yes"/>
      <point x="284" y="-200"/>
      <point x="348" y="-228"/>
    </contour>
  </outline>
</glyph>
<glyph name="uogonek" format="2">
  <advance width="524"/>
  <unicode hex="0173"/>
  <outline>
    <contour>
      <point x="468" y="-204" type="curve"/>
      <point x="468" y="-152" type="line"/>
      <point x="392" y="-172"/>
      <point x="348" y="-157"/>
      <point x="348" y="-112" type="curve" smooth="yes"/>
      <point x="348" y="-69"/>
      <point x="392" y="-28"/>
      <point x="468" y="0" type="curve"/>
      <point x="420" y="0" type="line"/>
      <point x="352" y="-26"/>
      <point x="304" y="-76"/>
      <point x="304" y="-132" type="curve" smooth="yes"/>
      <point x="304" y="-200"/>
      <point x="368" y="-228"/>
    </contour>
    <component base="u"/>
  </outline>
</glyph>
<glyph name="florin" format="2">
  <advance width="448"/>
  <unicode hex="0192"/>
  <outline>
    <contour>
      <point x="12" y="-2" type="line"/>
      <point x="157" y="-27"/>
      <point x="250" y="36"/>
      <point x="250" y="158" type="curve" smooth="yes"/>
      <point x="250" y="452" type="line" smooth="yes"/>
      <point x="250" y="532"/>
      <point x="322" y="564"/>
      <point x="442" y="532" type="curve"/>
      <point x="446" y="702" type="line"/>
      <point x="299" y="727"/>
      <point x="204" y="661"/>
      <point x="204" y="534" type="curve" smooth="yes"/>
      <point x="204" y="242" type="line" smooth="yes"/>
      <point x="204" y="170"/>
      <point x="136" y="138"/>
      <point x="16" y="170" type="curve"/>
    </contour>
    <contour>
      <point x="34" y="325" type="line"/>
      <point x="440" y="325" type="line"/>
      <point x="440" y="371" type="line"/>
      <point x="34" y="371" type="line"/>
    </contour>
  </outline>
</glyph>
<glyph name="jdotless" format="2">
  <advance width="188"/>
  <unicode hex="0237"/>
  <anchor x="110" y="520" name="top"/>
  <outline>
    <contour>
      <point x="-112" y="-270" type="line"/>
      <point x="36" y="-296"/>
      <point x="132" y="-232"/>
      <point x="132" y="-106" type="curve" smooth="yes"/>
      <point x="132" y="520" type="line"/>
      <point x="88" y="520" type="line"/>
      <point x="88" y="0" type="line" smooth="yes"/>
      <point x="88" y="-77"/>
      <point x="17" y="-105"/>
      <point x="-104" y="-76" type="curve"/>
    </contour>
  </outline>
</glyph>
<glyph name="gravecomb" format="2">
  <advance width="400"/>
  <unicode hex="0300"/>
  <anchor x="200" y="520" name="_top"/>
  <outline>
    <contour>
      <point x="312" y="608" type="line"/>
      <point x="320" y="640" type="line"/>
      <point x="72" y="720" type="line"/>
      <point x="60" y="672" type="line"/>
    </contour>
  </outline>
</glyph>
<glyph name="acutecomb" format="2">
  <advance width="400"/>
  <unicode hex="0301"/>
  <anchor x="200" y="520" name="_top"/>
  <outline>
    <contour>
      <point x="88" y="608" type="line"/>
      <point x="344" y="670" type="line"/>
      <point x="332" y="718" type="line"/>
      <point x="80" y="640" type="line"/>
    </contour>
  </outline>
</glyph>
<glyph name="circumflexcomb" format="2">
  <advance width="400"/>
  <unicode hex="0302"/>
  <anchor x="200" y="520" name="_top"/>
  <outline>
    <contour>
      <point x="96" y="588" type="line"/>
      <point x="200" y="708" type="line"/>
      <point x="302" y="588" type="line"/>
      <point x="332" y="608" type="line"/>
      <point x="247" y="730" type="line"/>
      <point x="155" y="730" type="line"/>
      <point x="68" y="608" type="line"/>
    </contour>
  </outline>
</glyph>
<glyph name="tildecomb" format="2">
  <advance width="400"/>
  <unicode hex="0303"/>
  <anchor x="200" y="520" name="_top"/>
  <outline>
    <contour>
      <point x="248" y="602" type="curve" smooth="yes"/>
      <point x="296" y="602"/>
      <point x="324" y="638"/>
      <point x="324" y="700" type="curve"/>
      <point x="292" y="700" type="line"/>
      <point x="292" y="684"/>
      <point x="284" y="676"/>
      <point x="268" y="676" type="curve" smooth="yes"/>
      <point x="228" y="676"/>
      <point x="208" y="726"/>
      <point x="152" y="726" type="curve" smooth="yes"/>
      <point x="104" y="726"/>
      <point x="76" y="690"/>
      <point x="76" y="628" type="curve"/>
      <point x="108" y="628" type="line"/>
      <point x="108" y="644"/>
      <point x="116" y="652"/>
      <point x="132" y="652" type="curve" smooth="yes"/>
      <point x="172" y="652"/>
      <point x="192" y="602"/>
    </contour>
  </outline>
</glyph>
<glyph name="macroncomb" format="2">
  <advance width="400"/>
  <unicode hex="0304"/>
  <anchor x="200" y="520" name="_top"/>
  <outline>
    <contour>
      <point x="64" y="641" type="line"/>
      <point x="336" y="641" type="line"/>
      <point x="336" y="687" type="line"/>
      <point x="64" y="687" type="line"/>
    </contour>
  </outline>
</glyph>
<glyph name="brevecomb" format="2">
  <advance width="400"/>
  <unicode hex="0306"/>
  <anchor x="200" y="520" name="_top"/>
  <outline>
    <contour>
      <point x="200" y="600" type="curve" smooth="yes"/>
      <point x="271" y="600"/>
      <point x="316" y="652"/>
      <point x="316" y="732" type="curve"/>
      <point x="284" y="732" type="line"/>
      <point x="284" y="694"/>
      <point x="253" y="672"/>
      <point x="200" y="672" type="curve" smooth="yes"/>
      <point x="147" y="672"/>
      <point x="116" y="694"/>
      <point x="116" y="732" type="curve"/>
      <point x="84" y="732" type="line"/>
      <point x="84" y="652"/>
      <point x="129" y="600"/>
    </contour>
  </outline>
</glyph>
<glyph name="dotaccentcomb" format="2">
  <advance width="400"/>
  <unicode hex="0307"/>
  <anchor x="200" y="520" name="_top"/>
  <outline>
    <contour>
      <point x="200" y="618" type="curve" smooth="yes"/>
      <point x="233" y="618"/>
      <point x="256" y="640"/>
      <point x="256" y="672" type="curve" smooth="yes"/>
      <point x="256" y="704"/>
      <point x="233" y="726"/>
      <point x="200" y="726" type="curve" smooth="yes"/>
      <point x="167" y="726"/>
      <point x="144" y="704"/>
      <point x="144" y="672" type="curve" smooth="yes"/>
      <point x="144" y="640"/>
      <point x="167" y="618"/>
    </contour>
  </outline>
</glyph>
<glyph name="dieresiscomb" format="2">
  <advance width="400"/>
  <unicode hex="0308"/>
  <anchor x="200" y="520" name="_top"/>
  <outline>
    <contour>
      <point x="124" y="622" type="curve" smooth="yes"/>
      <point x="154" y="622"/>
      <point x="176" y="643"/>
      <point x="176" y="672" type="curve" smooth="yes"/>
      <point x="176" y="701"/>
      <point x="154" y="722"/>
      <point x="124" y="722" type="curve" smooth="yes"/>
      <point x="94" y="722"/>
      <point x="72" y="701"/>
      <point x="72" y="672" type="curve" smooth="yes"/>
      <point x="72" y="643"/>
      <point x="94" y="622"/>
    </contour>
    <contour>
      <point x="276" y="622" type="curve" smooth="yes"/>
      <point x="306" y="622"/>
      <point x="328" y="643"/>
      <point x="328" y="672" type="curve" smooth="yes"/>
      <point x="328" y="701"/>
      <point x="306" y="722"/>
      <point x="276" y="722" type="curve" smooth="yes"/>
      <point x="246" y="722"/>
      <point x="224" y="701"/>
      <point x="224" y="672" type="curve" smooth="yes"/>
      <point x="224" y="643"/>
      <point x="246" y="622"/>
    </contour>
  </outline>
</glyph>
<glyph name="ringcomb" format="2">
  <advance width="400"/>
  <unicode hex="030A"/>
  <anchor x="200" y="520" name="_top"/>
  <outline>
    <contour>
      <point x="200" y="596" type="curve" smooth="yes"/>
      <point x="249" y="596"/>
      <point x="280" y="625"/>
      <point x="280" y="671" type="curve" smooth="yes"/>
      <point x="280" y="718"/>
      <point x="249" y="748"/>
      <point x="200" y="748" type="curve" smooth="yes"/>
      <point x="151" y="748"/>
      <point x="120" y="718"/>
      <point x="120" y="671" type="curve" smooth="yes"/>
      <point x="120" y="625"/>
      <point x="151" y="596"/>
    </contour>
    <contour>
      <point x="200" y="632" type="curve" smooth="yes"/>
      <point x="168" y="632"/>
      <point x="150" y="646"/>
      <point x="150" y="671" type="curve" smooth="yes"/>
      <point x="150" y="696"/>
      <point x="168" y="710"/>
      <point x="200" y="710" type="curve" smooth="yes"/>
      <point x="232" y="710"/>
      <point x="250" y="696"/>
      <point x="250" y="671" type="curve" smooth="yes"/>
      <point x="250" y="646"/>
      <point x="232" y="632"/>
    </contour>
  </outline>
</glyph>
<glyph name="hungarumlautcomb" format="2">
  <advance width="400"/>
  <unicode hex="030B"/>
  <anchor x="200" y="520" name="_top"/>
  <outline>
    <contour>
      <point x="92" y="594" type="line"/>
      <point x="248" y="712" type="line"/>
      <point x="220" y="746" type="line"/>
      <point x="74" y="616" type="line"/>
    </contour>
    <contour>
      <point x="206" y="602" type="line"/>
      <point x="378" y="684" type="line"/>
      <point x="356" y="726" type="line"/>
      <point x="192" y="628" type="line"/>
    </contour>
  </outline>
</glyph>
<glyph name="caroncomb" format="2">
  <advance width="400"/>
  <unicode hex="030C"/>
  <anchor x="200" y="520" name="_top"/>
  <outline>
    <contour>
      <point x="155" y="604" type="line"/>
      <point x="249" y="604" type="line"/>
      <point x="332" y="722" type="line"/>
      <point x="304" y="742" type="line"/>
      <point x="203" y="628" type="line"/>
      <point x="96" y="742" type="line"/>
      <point x="68" y="720" type="line"/>
    </contour>
  </outline>
</glyph>
<glyph name="cedillacomb" format="2">
  <advance width="400"/>
  <unicode hex="0327"/>
  <anchor x="200" y="0" name="_bottom"/>
  <outline>
    <contour>
      <point x="132" y="-206" type="line"/>
      <point x="246" y="-227"/>
      <point x="312" y="-201"/>
      <point x="312" y="-136" type="curve" smooth="yes"/>
      <point x="312" y="-78"/>
      <point x="266" y="-56"/>
      <point x="188" y="-76" type="curve"/>
      <point x="204" y="20" type="line"/>
      <point x="168" y="20" type="line"/>
      <point x="150" y="-104" type="line"/>
      <point x="168" y="-116" type="line"/>
      <point x="241" y="-97"/>
      <point x="280" y="-104"/>
      <point x="280" y="-136" type="curve" smooth="yes"/>
      <point x="280" y="-171"/>
      <point x="229" y="-179"/>
      <point x="132" y="-160" type="curve"/>
    </contour>
  </outline>
</glyph>
<glyph name="ogonekcomb" format="2">
  <advance width="400"/>
  <unicode hex="0328"/>
  <anchor x="224" y="0" name="_ogonek"/>
  <outline>
    <contour>
      <point x="224" y="-204" type="curve"/>
      <point x="224" y="-152" type="line"/>
      <point x="148" y="-172"/>
      <point x="104" y="-157"/>
      <point x="104" y="-112" type="curve" smooth="yes"/>
      <point x="104" y="-69"/>
      <point x="148" y="-28"/>
      <point x="224" y="0" type="curve"/>
      <point x="172" y="0" type="line"/>
      <point x="104" y="-26"/>
      <point x="60" y="-76"/>
      <point x="60" y="-132" type="curve" smooth="yes"/>
      <point x="60" y="-200"/>
      <point x="124" y="-228"/>
    </contour>
  </outline>
</glyph>
<glyph name="Germandbls" format="2">
  <advance width="606"/>
  <unicode hex="1E9E"/>
  <outline>
    <contour>
      <point x="386" y="-8" type="curve" smooth="yes"/>
      <point x="503" y="-8"/>
      <point x="586" y="67"/>
      <point x="586" y="172" type="curve" smooth="yes"/>
      <point x="586" y="260"/>
      <point x="520" y="324"/>
      <point x="412" y="344" type="curve" smooth="yes"/>
      <point x="358" y="354"/>
      <point x="324" y="391"/>
      <point x="324" y="440" type="curve" smooth="yes"/>
      <point x="324" y="492"/>
      <point x="366" y="536"/>
      <point x="442" y="540" type="curve"/>
      <point x="446" y="680" type="line"/>
      <point x="292" y="756"/>
      <point x="52" y="676"/>
      <point x="52" y="444" type="curve" smooth="yes"/>
      <point x="52" y="0" type="line"/>
      <point x="102" y="0" type="line"/>
      <point x="102" y="388" type="line" smooth="yes"/>
      <point x="102" y="485"/>
      <point x="170" y="548"/>
      <point x="276" y="548" type="curve"/>
      <point x="276" y="536" type="line"/>
      <point x="242" y="522"/>
      <point x="220" y="484"/>
      <point x="220" y="444" type="curve" smooth="yes"/>
      <point x="220" y="376"/>
      <point x="280" y="328"/>
      <point x="380" y="312" type="curve" smooth="yes"/>
      <point x="445" y="302"/>
      <point x="500" y="272"/>
      <point x="500" y="220" type="curve" smooth="yes"/>
      <point x="500" y="171"/>
      <point x="448" y="140"/>
      <point x="368" y="140" type="curve" smooth="yes"/>
      <point x="276" y="140"/>
      <point x="204" y="172"/>
      <point x="192" y="228" type="curve"/>
      <point x="160" y="224" type="line"/>
      <point x="160" y="88"/>
      <point x="255" y="-8"/>
    </contour>
  </outline>
</glyph>
<glyph name="endash" format="2">
  <advance width="500"/>
  <unicode hex="2013"/>
  <outline>
    <contour>
      <point x="0" y="225" type="line"/>
      <point x="500" y="225" type="line"/>
      <point x="500" y="287" type="line"/>
      <point x="0" y="287" type="line"/>
    </contour>
  </outline>
</glyph>
<glyph name="emdash" format="2">
  <advance width="800"/>
  <unicode hex="2014"/>
  <outline>
    <contour>
      <point x="0" y="225" type="line"/>
      <point x="800" y="225" type="line"/>
      <point x="800" y="287" type="line"/>
      <point x="0" y="287" type="line"/>
    </contour>
  </outline>
</glyph>
<glyph name="dagger" format="2">
  <advance width="360"/>
  <unicode hex="2020"/>
  <outline>
    <contour>
      <point x="12" y="372" type="line"/>
      <point x="162" y="374" type="line"/>
      <point x="156" y="0" type="line"/>
      <point x="204" y="0" type="line"/>
      <point x="198" y="374" type="line"/>
      <point x="348" y="372" type="line"/>
      <point x="348" y="528" type="line"/>
      <point x="198" y="528" type="line"/>
      <point x="206" y="700" type="line"/>
      <point x="154" y="700" type="line"/>
      <point x="162" y="528" type="line"/>
      <point x="12" y="528" type="line"/>
    </contour>
  </outline>
</glyph>
<glyph name="daggerdbl" format="2">
  <advance width="368"/>
  <unicode hex="2021"/>
  <outline>
    <contour>
      <point x="160" y="0" type="line"/>
      <point x="208" y="0" type="line"/>
      <point x="202" y="148" type="line"/>
      <point x="350" y="148" type="line"/>
      <point x="350" y="296" type="line"/>
      <point x="206" y="296" type="line"/>
      <point x="206" y="416" type="line"/>
      <point x="352" y="416" type="line"/>
      <point x="352" y="568" type="line"/>
      <point x="202" y="568" type="line"/>
      <point x="210" y="700" type="line"/>
      <point x="158" y="700" type="line"/>
      <point x="166" y="568" type="line"/>
      <point x="16" y="568" type="line"/>
      <point x="16" y="416" type="line"/>
      <point x="162" y="416" type="line"/>
      <point x="162" y="296" type="line"/>
      <point x="18" y="296" type="line"/>
      <point x="18" y="148" type="line"/>
      <point x="166" y="148" type="line"/>
    </contour>
  </outline>
</glyph>
<glyph name="perthousand" format="2">
  <advance width="1100"/>
  <unicode hex="2030"/>
  <outline>
    <contour>
      <point x="918" y="-8" type="curve" smooth="yes"/>
      <point x="1014" y="-8"/>
      <point x="1076" y="64"/>
      <point x="1076" y="175" type="curve" smooth="yes"/>
      <point x="1076" y="290"/>
      <point x="1014" y="364"/>
      <point x="918" y="364" type="curve" smooth="yes"/>
      <point x="822" y="364"/>
      <point x="760" y="290"/>
      <point x="760" y="175" type="curve" smooth="yes"/>
      <point x="760" y="64"/>
      <point x="822" y="-8"/>
    </contour>
    <contour>
      <point x="918" y="56" type="curve" smooth="yes"/>
      <point x="841" y="56"/>
      <point x="796" y="101"/>
      <point x="796" y="177" type="curve" smooth="yes"/>
      <point x="796" y="253"/>
      <point x="841" y="298"/>
      <point x="918" y="298" type="curve" smooth="yes"/>
      <point x="995" y="298"/>
      <point x="1040" y="253"/>
      <point x="1040" y="177" type="curve" smooth="yes"/>
      <point x="1040" y="101"/>
      <point x="995" y="56"/>
    </contour>
    <component base="percent"/>
  </outline>
</glyph>
<glyph name="guilsinglleft" format="2">
  <advance width="248"/>
  <unicode hex="2039"/>
  <outline>
    <contour>
      <point x="146" y="112" type="line"/>
      <point x="216" y="112" type="line"/>
      <point x="68" y="248" type="line"/>
      <point x="68" y="260" type="line"/>
      <point x="212" y="400" type="line"/>
      <point x="146" y="400" type="line"/>
      <point x="40" y="290" type="line"/>
      <point x="40" y="218" type="line"/>
    </contour>
  </outline>
</glyph>
<glyph name="fraction" format="2">
  <advance width="564"/>
  <unicode hex="2044"/>
  <outline>
    <contour>
      <point x="10" y="0" type="line"/>
      <point x="60" y="0" type="line"/>
      <point x="554" y="700" type="line"/>
      <point x="504" y="700" type="line"/>
    </contour>
  </outline>
</glyph>
<glyph name="zerosuperior" format="2">
  <advance width="386"/>
  <unicode hex="2070"/>
  <outline>
    <contour>
      <point x="193" y="324" type="curve" smooth="yes"/>
      <point x="291" y="324"/>
      <point x="354" y="397"/>
      <point x="354" y="511" type="curve" smooth="yes"/>
      <point x="354" y="628"/>
      <point x="291" y="704"/>
      <point x="193" y="704" type="curve" smooth="yes"/>
      <point x="95" y="704"/>
      <point x="32" y="628"/>
      <point x="32" y="511" type="curve" smooth="yes"/>
      <point x="32" y="397"/>
      <point x="95" y="324"/>
    </contour>
    <contour>
      <point x="193" y="434" type="curve" smooth="yes"/>
      <point x="110" y="434"/>
      <point x="62" y="463"/>
      <point x="62" y="513" type="curve" smooth="yes"/>
      <point x="62" y="563"/>
      <point x="110" y="592"/>
      <point x="193" y="592" type="curve" smooth="yes"/>
      <point x="276" y="592"/>
      <point x="324" y="563"/>
      <point x="324" y="513" type="curve" smooth="yes"/>
      <point x="324" y="463"/>
      <point x="276" y="434"/>
    </contour>
  </outline>
</glyph>
<glyph name="foursuperior" format="2">
  <advance width="284"/>
  <unicode hex="2074"/>
  <outline>
    <contour>
      <point x="192" y="332" type="line"/>
      <point x="224" y="332" type="line"/>
      <point x="224" y="700" type="line"/>
      <point x="172" y="700" type="line"/>
      <point x="16" y="476" type="line"/>
      <point x="16" y="388" type="line"/>
      <point x="264" y="388" type="line"/>
      <point x="264" y="488" type="line"/>
      <point x="44" y="488" type="line"/>
      <point x="48" y="472" type="line"/>
      <point x="136" y="596" type="line"/>
      <point x="192" y="596" type="line"/>
    </contour>
  </outline>
</glyph>
<glyph name="euro" format="2">
  <advance width="696"/>
  <unicode hex="20AC"/>
  <outline>
    <contour>
      <point x="-2" y="281" type="line"/>
      <point x="436" y="281" type="line"/>
      <point x="438" y="325" type="line"/>
      <point x="0" y="325" type="line"/>
    </contour>
    <contour>
      <point x="0" y="363" type="line"/>
      <point x="442" y="363" type="line"/>
      <point x="444" y="407" type="line"/>
      <point x="2" y="407" type="line"/>
    </contour>
    <component base="C" xOffset="8"/>
  </outline>
</glyph>
<glyph name="trademark" format="2">
  <advance width="796"/>
  <unicode hex="2122"/>
  <outline>
    <contour>
      <point x="356" y="328" type="line"/>
      <point x="396" y="328" type="line"/>
      <point x="396" y="564" type="line"/>
      <point x="404" y="564" type="line"/>
      <point x="523" y="328" type="line"/>
      <point x="587" y="328" type="line"/>
      <point x="704" y="564" type="line"/>
      <point x="712" y="564" type="line"/>
      <point x="712" y="328" type="line"/>
      <point x="752" y="328" type="line"/>
      <point x="752" y="700" type="line"/>
      <point x="676" y="700" type="line"/>
      <point x="560" y="456" type="line"/>
      <point x="552" y="456" type="line"/>
      <point x="434" y="700" type="line"/>
      <point x="356" y="700" type="line"/>
    </contour>
    <contour>
      <point x="148" y="328" type="line"/>
      <point x="188" y="328" type="line"/>
      <point x="188" y="580" type="line"/>
      <point x="324" y="580" type="line"/>
      <point x="324" y="700" type="line"/>
      <point x="12" y="700" type="line"/>
      <point x="12" y="580" type="line"/>
      <point x="148" y="580" type="line"/>
    </contour>
  </outline>
</glyph>
<glyph name="minus" format="2">
  <advance width="564"/>
  <unicode hex="2212"/>
  <outline>
    <contour>
      <point x="52" y="248" type="line"/>
      <point x="512" y="248" type="line"/>
      <point x="512" y="312" type="line"/>
      <point x="52" y="312" type="line"/>
    </contour>
  </outline>
</glyph>
<glyph name="approxequal" format="2">
  <advance width="564"/>
  <unicode hex="2248"/>
  <outline>
    <contour>
      <point x="376" y="280" type="curve" smooth="yes"/>
      <point x="451" y="280"/>
      <point x="500" y="333"/>
      <point x="500" y="416" type="curve"/>
      <point x="456" y="416" type="line"/>
      <point x="456" y="373"/>
      <point x="430" y="348"/>
      <point x="386" y="348" type="curve" smooth="yes"/>
      <point x="306" y="348"/>
      <point x="284" y="432"/>
      <point x="188" y="432" type="curve" smooth="yes"/>
      <point x="113" y="432"/>
      <point x="64" y="379"/>
      <point x="64" y="296" type="curve"/>
      <point x="108" y="296" type="line"/>
      <point x="108" y="339"/>
      <point x="134" y="364"/>
      <point x="178" y="364" type="curve" smooth="yes"/>
      <point x="258" y="364"/>
      <point x="280" y="280"/>
    </contour>
    <contour>
      <point x="376" y="120" type="curve" smooth="yes"/>
      <point x="451" y="120"/>
      <point x="500" y="173"/>
      <point x="500" y="256" type="curve"/>
      <point x="456" y="256" type="line"/>
      <point x="456" y="213"/>
      <point x="430" y="188"/>
      <point x="386" y="188" type="curve" smooth="yes"/>
      <point x="306" y="188"/>
      <point x="284" y="272"/>
      <point x="188" y="272" type="curve" smooth="yes"/>
      <point x="113" y="272"/>
      <point x="64" y="219"/>
      <point x="64" y="136" type="curve"/>
      <point x="108" y="136" type="line"/>
      <point x="108" y="179"/>
      <point x="134" y="204"/>
      <point x="178" y="204" type="curve" smooth="yes"/>
      <point x="258" y="204"/>
      <point x="280" y="120"/>
    </contour>
  </outline>
</glyph>
<glyph name="notequal" format="2">
  <advance width="564"/>
  <unicode hex="2260"/>
  <outline>
    <contour>
      <point x="78" y="32" type="line"/>
      <point x="130" y="32" type="line"/>
      <point x="490" y="516" type="line"/>
      <point x="436" y="516" type="line"/>
    </contour>
    <component base="equal"/>
  </outline>
</glyph>
<glyph name="lessequal" format="2">
  <advance width="564"/>
  <unicode hex="2264"/>
  <outline>
    <contour>
      <point x="492" y="148" type="line"/>
      <point x="492" y="212" type="line"/>
      <point x="100" y="333" type="line"/>
      <point x="100" y="345" type="line"/>
      <point x="492" y="460" type="line"/>
      <point x="492" y="536" type="line"/>
      <point x="64" y="376" type="line"/>
      <point x="64" y="304" type="line"/>
    </contour>
    <contour>
      <point x="66" y="52" type="line"/>
      <point x="492" y="52" type="line"/>
      <point x="492" y="114" type="line"/>
      <point x="66" y="114" type="line"/>
    </contour>
  </outline>
</glyph>
<glyph name="daggerdblsuperior" format="2">
  <advance width="304"/>
  <outline>
    <contour>
      <point x="131" y="332" type="line"/>
      <point x="173" y="332" type="line"/>
      <point x="169" y="412" type="line"/>
      <point x="266" y="412" type="line"/>
      <point x="266" y="498" type="line"/>
      <point x="171" y="498" type="line"/>
      <point x="171" y="524" type="line"/>
      <point x="268" y="524" type="line"/>
      <point x="268" y="612" type="line"/>
      <point x="169" y="612" type="line"/>
      <point x="173" y="700" type="line"/>
      <point x="131" y="700" type="line"/>
      <point x="135" y="612" type="line"/>
      <point x="36" y="612" type="line"/>
      <point x="36" y="524" type="line"/>
      <point x="133" y="524" type="line"/>
      <point x="133" y="498" type="line"/>
      <point x="38" y="498" type="line"/>
      <point x="38" y="412" type="line"/>
      <point x="135" y="412" type="line"/>
    </contour>
  </outline>
</glyph>
<glyph name="daggersuperior" format="2">
  <advance width="296"/>
  <outline>
    <contour>
      <point x="129" y="332" type="line"/>
      <point x="167" y="332" type="line"/>
      <point x="165" y="482" type="line"/>
      <point x="264" y="482" type="line"/>
      <point x="264" y="606" type="line"/>
      <point x="165" y="606" type="line"/>
      <point x="168" y="700" type="line"/>
      <point x="128" y="700" type="line"/>
      <point x="131" y="606" type="line"/>
      <point x="32" y="606" type="line"/>
      <point x="32" y="482" type="line"/>
      <point x="131" y="482" type="line"/>
    </contour>
  </outline>
</glyph>
<glyph name="t_t.liga" format="2">
  <advance width="640"/>
  <outline>
    <contour>
      <point x="620" y="0" type="curve"/>
      <point x="612" y="152" type="line"/>
      <point x="489" y="129"/>
      <point x="424" y="162"/>
      <point x="424" y="248" type="curve" smooth="yes"/>
      <point x="424" y="364" type="line"/>
      <point x="604" y="364" type="line"/>
      <point x="604" y="520" type="line"/>
      <point x="416" y="520" type="line"/>
      <point x="428" y="664" type="line"/>
      <point x="388" y="664" type="line"/>
      <point x="388" y="520" type="line"/>
      <point x="288" y="520" type="line"/>
      <point x="288" y="364" type="line"/>
      <point x="388" y="364" type="line"/>
      <point x="388" y="160" type="line" smooth="yes"/>
      <point x="388" y="34"/>
      <point x="474" y="-25"/>
    </contour>
    <component base="t"/>
  </outline>
</glyph>
<glyph name="t_t_t.liga" format="2">
  <advance width="952"/>
  <outline>
    <contour>
      <point x="620" y="0" type="curve"/>
      <point x="612" y="152" type="line"/>
      <point x="489" y="129"/>
      <point x="424" y="162"/>
      <point x="424" y="248" type="curve" smooth="yes"/>
      <point x="424" y="364" type="line"/>
      <point x="604" y="364" type="line"/>
      <point x="604" y="520" type="line"/>
      <point x="416" y="520" type="line"/>
      <point x="428" y="664" type="line"/>
      <point x="388" y="664" type="line"/>
      <point x="388" y="520" type="line"/>
      <point x="288" y="520" type="line"/>
      <point x="288" y="364" type="line"/>
      <point x="388" y="364" type="line"/>
      <point x="388" y="160" type="line" smooth="yes"/>
      <point x="388" y="34"/>
      <point x="474" y="-25"/>
    </contour>
    <contour>
      <point x="932" y="0" type="curve"/>
      <point x="924" y="152" type="line"/>
      <point x="801" y="129"/>
      <point x="736" y="162"/>
      <point x="736" y="248" type="curve" smooth="yes"/>
      <point x="736" y="364" type="line"/>
      <point x="916" y="364" type="line"/>
      <point x="916" y="520" type="line"/>
      <point x="728" y="520" type="line"/>
      <point x="740" y="664" type="line"/>
      <point x="700" y="664" type="line"/>
      <point x="700" y="520" type="line"/>
      <point x="604" y="520" type="line"/>
      <point x="604" y="364" type="line"/>
      <point x="700" y="364" type="line"/>
      <point x="700" y="160" type="line" smooth="yes"/>
      <point x="700" y="34"/>
      <point x="786" y="-25"/>
    </contour>
    <component base="t"/>
  </outline>
</glyph>
